<svg width="138" height="26" viewBox="0 0 138 26" fill="none" xmlns="http://www.w3.org/2000/svg">
<g clip-path="url(#clip0_29_248)">
<path fill-rule="evenodd" clip-rule="evenodd" d="M69.8268 0.928001H67.5098V19.396H69.8278V12.279C69.8278 10.492 70.2178 9.277 70.9998 8.634C71.7808 7.99 72.6528 7.669 73.6138 7.669C74.7738 7.669 75.5628 8.036 75.9838 8.771C76.2408 9.231 76.3698 9.953 76.3698 10.939V19.396H78.7518V10.789C78.7518 9.469 78.5588 8.437 78.1718 7.694C77.4598 6.333 76.1038 5.652 74.1028 5.652C72.9878 5.652 72.0558 5.89 71.3088 6.366C70.8708 6.642 70.3778 7.118 69.8288 7.794V0.928001H69.8268ZM59.6408 5.59C61.1948 5.59 62.4588 5.958 63.4338 6.693C64.4078 7.428 64.9938 8.693 65.1908 10.489H62.9378C62.7998 9.662 62.4878 8.975 61.9978 8.428C61.5078 7.881 60.7228 7.608 59.6408 7.608C58.1648 7.608 57.1088 8.308 56.4728 9.712C56.0608 10.622 55.8548 11.746 55.8548 13.082C55.8548 14.427 56.1468 15.559 56.7308 16.478C57.3148 17.396 58.2328 17.856 59.4868 17.856C60.4478 17.856 61.2098 17.57 61.7718 16.998C62.3348 16.425 62.7228 15.642 62.9378 14.648H65.1908C64.9338 16.428 64.2898 17.728 63.2598 18.551C62.2298 19.374 60.9118 19.785 59.3058 19.785C57.5038 19.785 56.0658 19.145 54.9928 17.862C53.9188 16.58 53.3828 14.978 53.3828 13.057C53.3828 10.702 53.9708 8.869 55.1468 7.557C56.3228 6.246 57.8208 5.59 59.6408 5.59ZM32.2128 5.678C33.1908 5.678 34.1398 5.901 35.0578 6.348C35.9768 6.795 36.6768 7.373 37.1578 8.083C37.5548 8.663 37.8378 9.326 38.0078 10.072L38.0848 10.452C38.2218 11.069 38.2908 12.055 38.2908 13.408H28.1798C28.2238 14.769 28.5538 15.862 29.1718 16.684C29.7908 17.507 30.7478 17.918 32.0438 17.918C33.2538 17.918 34.2198 17.53 34.9418 16.753C35.3538 16.303 35.6448 15.78 35.8168 15.187H38.0968C38.0368 15.68 37.8368 16.229 37.4968 16.835C37.1588 17.44 36.7788 17.935 36.3578 18.319C35.6538 18.987 34.7828 19.439 33.7438 19.672C33.1228 19.8124 32.4875 19.8795 31.8508 19.872C30.1338 19.872 28.6788 19.265 27.4848 18.05C26.2918 16.835 25.6948 15.133 25.6948 12.945C25.6948 10.79 26.2958 9.04 27.4978 7.695C28.6998 6.35 30.2708 5.678 32.2108 5.678H32.2128ZM35.9078 11.617C35.8138 10.639 35.5948 9.858 35.2508 9.274C34.6158 8.188 33.5558 7.644 32.0708 7.644C31.0058 7.644 30.1138 8.019 29.3918 8.766C28.6718 9.514 28.2888 10.464 28.2458 11.616H35.9078V11.617ZM42.8228 5.979H39.8228L44.4328 12.519L39.5778 19.397H42.5138L45.8368 14.36L49.2618 19.397H52.2238L47.3688 12.518L52.0178 6.041L49.1978 5.979L45.9898 10.7L42.8218 5.977L42.8228 5.979ZM90.6368 10.614C90.4568 10.982 90.0998 11.199 89.5678 11.266L85.8718 11.716C84.5758 11.876 83.5288 12.297 82.7298 12.982C81.9318 13.667 81.5328 14.632 81.5328 15.876C81.5328 17.012 81.9378 17.958 82.7498 18.714C83.5608 19.47 84.6058 19.848 85.8848 19.848C86.9498 19.848 87.9248 19.626 88.8078 19.184C89.6928 18.741 90.3708 18.219 90.8428 17.618C90.9198 18.152 91.0528 18.566 91.2428 18.858C91.6028 19.409 92.1828 19.685 92.9808 19.685C93.2387 19.6884 93.4965 19.6757 93.7528 19.647C93.8668 19.632 94.0108 19.604 94.1858 19.562L94.5768 19.46V17.793C94.4402 17.8167 94.3028 17.8354 94.1648 17.849C94.0495 17.8612 93.9337 17.8679 93.8178 17.869C93.4998 17.869 93.2918 17.797 93.1928 17.655C93.0938 17.513 93.0448 17.325 93.0448 17.091V9.36C93.0448 8.09 92.5428 7.155 91.5378 6.554C90.5248 5.952 89.2078 5.652 87.5848 5.652C86.1848 5.652 84.9558 5.975 83.8948 6.622C82.8348 7.27 82.2838 8.421 82.2408 10.074H84.4038C84.4898 9.381 84.6738 8.859 84.9578 8.508C85.4648 7.874 86.3228 7.556 87.5338 7.556C88.5808 7.556 89.3858 7.729 89.9478 8.076C90.5098 8.423 90.7918 8.98 90.7918 9.749C90.7918 10.125 90.7398 10.413 90.6368 10.613V10.614ZM84.6868 17.367C84.1978 16.991 83.9538 16.477 83.9538 15.827C83.9538 14.966 84.3098 14.339 85.0228 13.947C85.4428 13.713 86.0738 13.542 86.9148 13.433L88.3188 13.258C88.7488 13.208 89.1858 13.124 89.6328 13.008C90.0788 12.89 90.4428 12.744 90.7268 12.568V14.385C90.7268 15.772 90.0828 16.77 88.7958 17.38C88.0579 17.741 87.2474 17.9291 86.4258 17.93C85.7558 17.93 85.1768 17.743 84.6878 17.367H84.6868ZM99.0468 5.978H96.8448V19.396H99.1628V12.367C99.1628 11.49 99.2208 10.816 99.3368 10.344C99.4528 9.872 99.7038 9.414 100.09 8.972C100.571 8.421 101.129 8.053 101.764 7.869C102.116 7.761 102.567 7.707 103.116 7.707C104.198 7.707 104.945 8.124 105.357 8.959C105.606 9.461 105.73 10.12 105.73 10.939V19.396H108.087V10.789C108.087 9.435 107.898 8.396 107.52 7.669C106.833 6.341 105.511 5.677 103.554 5.677C102.661 5.677 101.85 5.848 101.12 6.191C100.39 6.533 99.6998 7.097 99.0468 7.881V5.979V5.978ZM119.213 6.516C118.406 5.998 117.462 5.739 116.38 5.739C114.783 5.739 113.42 6.37 112.291 7.631C111.162 8.893 110.598 10.647 110.598 12.893C110.598 15.273 111.158 16.98 112.278 18.011C113.399 19.043 114.706 19.559 116.2 19.559C117.273 19.559 118.136 19.392 118.788 19.057C119.44 18.723 119.998 18.214 120.462 17.529C120.488 19.375 120.338 20.657 120.011 21.375C119.462 22.595 118.299 23.205 116.522 23.205C115.397 23.205 114.573 22.954 114.049 22.453C113.714 22.127 113.491 21.663 113.379 21.063H111.023C111.143 22.44 111.71 23.453 112.723 24.1C113.736 24.748 114.985 25.071 116.47 25.071C119.14 25.071 120.956 24.161 121.917 22.341C122.432 21.355 122.69 20.01 122.69 18.306V6.103H120.552V7.794C120.097 7.234 119.651 6.809 119.213 6.516ZM119.496 8.934C120.2 9.736 120.552 10.968 120.552 12.63C120.552 13.733 120.363 14.697 119.986 15.524C119.307 16.986 118.136 17.717 116.47 17.717C115.406 17.717 114.558 17.322 113.927 16.533C113.296 15.743 112.98 14.593 112.98 13.081C112.98 11.795 113.139 10.755 113.457 9.961C114.058 8.475 115.174 7.731 116.805 7.731C117.895 7.731 118.792 8.132 119.496 8.934ZM131.923 5.677C132.902 5.677 133.85 5.9 134.769 6.347C135.687 6.794 136.387 7.372 136.868 8.082C137.265 8.662 137.549 9.325 137.719 10.071L137.795 10.451C137.932 11.068 138.001 12.054 138.001 13.407H127.892C127.935 14.768 128.266 15.861 128.884 16.683C129.502 17.506 130.459 17.917 131.755 17.917C132.966 17.917 133.932 17.529 134.653 16.752C135.065 16.302 135.357 15.779 135.529 15.186H137.808C137.748 15.679 137.548 16.228 137.209 16.834C136.87 17.439 136.49 17.934 136.069 18.318C135.365 18.986 134.494 19.438 133.455 19.671C132.834 19.8114 132.198 19.8785 131.562 19.871C129.845 19.871 128.39 19.264 127.197 18.049C126.004 16.834 125.407 15.132 125.407 12.944C125.407 10.789 126.008 9.039 127.21 7.694C128.412 6.349 129.983 5.677 131.923 5.677ZM135.619 11.616H127.957C128 10.463 128.382 9.513 129.103 8.766C129.824 8.018 130.717 7.644 131.781 7.644C133.266 7.644 134.327 8.187 134.962 9.273C135.305 9.857 135.524 10.638 135.619 11.616Z" fill="black"/>
<path fill-rule="evenodd" clip-rule="evenodd" d="M69.8268 0.928001H67.5098V19.396H69.8278V12.279C69.8278 10.492 70.2178 9.277 70.9998 8.634C71.7808 7.99 72.6528 7.669 73.6138 7.669C74.7738 7.669 75.5628 8.036 75.9838 8.771C76.2408 9.231 76.3698 9.953 76.3698 10.939V19.396H78.7518V10.789C78.7518 9.469 78.5588 8.437 78.1718 7.694C77.4598 6.333 76.1038 5.652 74.1028 5.652C72.9878 5.652 72.0558 5.89 71.3088 6.366C70.8708 6.642 70.3778 7.118 69.8288 7.794V0.928001H69.8268ZM59.6408 5.59C61.1948 5.59 62.4588 5.958 63.4338 6.693C64.4078 7.428 64.9938 8.693 65.1908 10.489H62.9378C62.7998 9.662 62.4878 8.975 61.9978 8.428C61.5078 7.881 60.7228 7.608 59.6408 7.608C58.1648 7.608 57.1088 8.308 56.4728 9.712C56.0608 10.622 55.8548 11.746 55.8548 13.082C55.8548 14.427 56.1468 15.559 56.7308 16.478C57.3148 17.396 58.2328 17.856 59.4868 17.856C60.4478 17.856 61.2098 17.57 61.7718 16.998C62.3348 16.425 62.7228 15.642 62.9378 14.648H65.1908C64.9338 16.428 64.2898 17.728 63.2598 18.551C62.2298 19.374 60.9118 19.785 59.3058 19.785C57.5038 19.785 56.0658 19.145 54.9928 17.862C53.9188 16.58 53.3828 14.978 53.3828 13.057C53.3828 10.702 53.9708 8.869 55.1468 7.557C56.3228 6.246 57.8208 5.59 59.6408 5.59ZM32.2128 5.678C33.1908 5.678 34.1398 5.901 35.0578 6.348C35.9768 6.795 36.6768 7.373 37.1578 8.083C37.5548 8.663 37.8378 9.326 38.0078 10.072L38.0848 10.452C38.2218 11.069 38.2908 12.055 38.2908 13.408H28.1798C28.2238 14.769 28.5538 15.862 29.1718 16.684C29.7908 17.507 30.7478 17.918 32.0438 17.918C33.2538 17.918 34.2198 17.53 34.9418 16.753C35.3538 16.303 35.6448 15.78 35.8168 15.187H38.0968C38.0368 15.68 37.8368 16.229 37.4968 16.835C37.1588 17.44 36.7788 17.935 36.3578 18.319C35.6538 18.987 34.7828 19.439 33.7438 19.672C33.1228 19.8124 32.4875 19.8795 31.8508 19.872C30.1338 19.872 28.6788 19.265 27.4848 18.05C26.2918 16.835 25.6948 15.133 25.6948 12.945C25.6948 10.79 26.2958 9.04 27.4978 7.695C28.6998 6.35 30.2708 5.678 32.2108 5.678H32.2128ZM35.9078 11.617C35.8138 10.639 35.5948 9.858 35.2508 9.274C34.6158 8.188 33.5558 7.644 32.0708 7.644C31.0058 7.644 30.1138 8.019 29.3918 8.766C28.6718 9.514 28.2888 10.464 28.2458 11.616H35.9078V11.617ZM42.8228 5.979H39.8228L44.4328 12.519L39.5778 19.397H42.5138L45.8368 14.36L49.2618 19.397H52.2238L47.3688 12.518L52.0178 6.041L49.1978 5.979L45.9898 10.7L42.8218 5.977L42.8228 5.979ZM90.6368 10.614C90.4568 10.982 90.0998 11.199 89.5678 11.266L85.8718 11.716C84.5758 11.876 83.5288 12.297 82.7298 12.982C81.9318 13.667 81.5328 14.632 81.5328 15.876C81.5328 17.012 81.9378 17.958 82.7498 18.714C83.5608 19.47 84.6058 19.848 85.8848 19.848C86.9498 19.848 87.9248 19.626 88.8078 19.184C89.6928 18.741 90.3708 18.219 90.8428 17.618C90.9198 18.152 91.0528 18.566 91.2428 18.858C91.6028 19.409 92.1828 19.685 92.9808 19.685C93.2387 19.6884 93.4965 19.6757 93.7528 19.647C93.8668 19.632 94.0108 19.604 94.1858 19.562L94.5768 19.46V17.793C94.4402 17.8167 94.3028 17.8354 94.1648 17.849C94.0495 17.8612 93.9337 17.8679 93.8178 17.869C93.4998 17.869 93.2918 17.797 93.1928 17.655C93.0938 17.513 93.0448 17.325 93.0448 17.091V9.36C93.0448 8.09 92.5428 7.155 91.5378 6.554C90.5248 5.952 89.2078 5.652 87.5848 5.652C86.1848 5.652 84.9558 5.975 83.8948 6.622C82.8348 7.27 82.2838 8.421 82.2408 10.074H84.4038C84.4898 9.381 84.6738 8.859 84.9578 8.508C85.4648 7.874 86.3228 7.556 87.5338 7.556C88.5808 7.556 89.3858 7.729 89.9478 8.076C90.5098 8.423 90.7918 8.98 90.7918 9.749C90.7918 10.125 90.7398 10.413 90.6368 10.613V10.614ZM84.6868 17.367C84.1978 16.991 83.9538 16.477 83.9538 15.827C83.9538 14.966 84.3098 14.339 85.0228 13.947C85.4428 13.713 86.0738 13.542 86.9148 13.433L88.3188 13.258C88.7488 13.208 89.1858 13.124 89.6328 13.008C90.0788 12.89 90.4428 12.744 90.7268 12.568V14.385C90.7268 15.772 90.0828 16.77 88.7958 17.38C88.0579 17.741 87.2474 17.9291 86.4258 17.93C85.7558 17.93 85.1768 17.743 84.6878 17.367H84.6868ZM99.0468 5.978H96.8448V19.396H99.1628V12.367C99.1628 11.49 99.2208 10.816 99.3368 10.344C99.4528 9.872 99.7038 9.414 100.09 8.972C100.571 8.421 101.129 8.053 101.764 7.869C102.116 7.761 102.567 7.707 103.116 7.707C104.198 7.707 104.945 8.124 105.357 8.959C105.606 9.461 105.73 10.12 105.73 10.939V19.396H108.087V10.789C108.087 9.435 107.898 8.396 107.52 7.669C106.833 6.341 105.511 5.677 103.554 5.677C102.661 5.677 101.85 5.848 101.12 6.191C100.39 6.533 99.6998 7.097 99.0468 7.881V5.979V5.978ZM119.213 6.516C118.406 5.998 117.462 5.739 116.38 5.739C114.783 5.739 113.42 6.37 112.291 7.631C111.162 8.893 110.598 10.647 110.598 12.893C110.598 15.273 111.158 16.98 112.278 18.011C113.399 19.043 114.706 19.559 116.2 19.559C117.273 19.559 118.136 19.392 118.788 19.057C119.44 18.723 119.998 18.214 120.462 17.529C120.488 19.375 120.338 20.657 120.011 21.375C119.462 22.595 118.299 23.205 116.522 23.205C115.397 23.205 114.573 22.954 114.049 22.453C113.714 22.127 113.491 21.663 113.379 21.063H111.023C111.143 22.44 111.71 23.453 112.723 24.1C113.736 24.748 114.985 25.071 116.47 25.071C119.14 25.071 120.956 24.161 121.917 22.341C122.432 21.355 122.69 20.01 122.69 18.306V6.103H120.552V7.794C120.097 7.234 119.651 6.809 119.213 6.516ZM119.496 8.934C120.2 9.736 120.552 10.968 120.552 12.63C120.552 13.733 120.363 14.697 119.986 15.524C119.307 16.986 118.136 17.717 116.47 17.717C115.406 17.717 114.558 17.322 113.927 16.533C113.296 15.743 112.98 14.593 112.98 13.081C112.98 11.795 113.139 10.755 113.457 9.961C114.058 8.475 115.174 7.731 116.805 7.731C117.895 7.731 118.792 8.132 119.496 8.934ZM131.923 5.677C132.902 5.677 133.85 5.9 134.769 6.347C135.687 6.794 136.387 7.372 136.868 8.082C137.265 8.662 137.549 9.325 137.719 10.071L137.795 10.451C137.932 11.068 138.001 12.054 138.001 13.407H127.892C127.935 14.768 128.266 15.861 128.884 16.683C129.502 17.506 130.459 17.917 131.755 17.917C132.966 17.917 133.932 17.529 134.653 16.752C135.065 16.302 135.357 15.779 135.529 15.186H137.808C137.748 15.679 137.548 16.228 137.209 16.834C136.87 17.439 136.49 17.934 136.069 18.318C135.365 18.986 134.494 19.438 133.455 19.671C132.834 19.8114 132.198 19.8785 131.562 19.871C129.845 19.871 128.39 19.264 127.197 18.049C126.004 16.834 125.407 15.132 125.407 12.944C125.407 10.789 126.008 9.039 127.21 7.694C128.412 6.349 129.983 5.677 131.923 5.677ZM135.619 11.616H127.957C128 10.463 128.382 9.513 129.103 8.766C129.824 8.018 130.717 7.644 131.781 7.644C133.266 7.644 134.327 8.187 134.962 9.273C135.305 9.857 135.524 10.638 135.619 11.616Z" fill="white"/>
<path fill-rule="evenodd" clip-rule="evenodd" d="M10.469 13L20.938 23.214H0L10.469 13Z" fill="#5A81EA"/>
<path fill-rule="evenodd" clip-rule="evenodd" d="M10.469 13L20.938 2.786H0L10.469 13Z" fill="#E14B51"/>
</g>
<defs>
<clipPath id="clip0_29_248">
<rect width="138" height="26" fill="white"/>
</clipPath>
</defs>
</svg>
