<svg width="608" height="453" viewBox="0 0 608 453" fill="none" xmlns="http://www.w3.org/2000/svg">
<path d="M320.602 15.229C365.005 15.2276 407.744 31.6442 440.134 61.1431C472.524 90.6421 492.136 131.011 494.984 174.046C497.833 217.082 483.704 259.557 455.469 292.841C427.234 326.124 387.011 347.72 342.973 353.24L331.857 269.611C354.013 266.833 374.249 255.968 388.454 239.222C402.659 222.477 409.768 201.107 408.335 179.455C406.901 157.804 397.034 137.495 380.738 122.654C364.443 107.813 342.941 99.5527 320.602 99.5519V15.229Z" fill="#E14B51"/>
<path d="M343.656 353.152C307.873 357.779 271.493 351.528 239.516 335.26C207.539 318.991 181.536 293.503 165.079 262.299C154.156 241.588 147.736 218.917 146.216 195.695C144.696 172.472 148.111 149.194 156.246 127.307C164.382 105.42 177.065 85.3915 193.508 68.4667C209.951 51.542 229.803 38.0825 251.83 28.9249C273.856 19.7669 297.586 15.106 321.545 15.232L321.076 99.5529C309.022 99.49 297.083 101.835 286.001 106.443C274.919 111.05 264.932 117.822 256.658 126.337C248.386 134.852 242.005 144.929 237.912 155.94C233.819 166.952 232.101 178.663 232.865 190.347C233.629 202.031 236.859 213.438 242.354 223.858C247.85 234.278 255.493 243.489 264.81 250.919C274.126 258.348 284.916 263.838 296.509 267.046C308.103 270.254 320.252 271.112 332.201 269.567L343.656 353.152Z" fill="#5A81EA"/>
<path d="M182.177 140.189L123.611 92.2713C122.36 91.248 120.794 90.689 119.178 90.689H42.1768" stroke="#5A81EA" stroke-width="2"/>
<path d="M343.657 353.152C319.907 356.223 295.76 354.517 272.718 348.14C249.675 341.763 228.229 330.852 209.712 316.085C191.195 301.318 176.003 283.011 165.079 262.3C154.156 241.589 147.736 218.918 146.217 195.695C144.698 172.472 148.112 149.194 156.248 127.307C164.384 105.421 177.068 85.3926 193.511 68.468C209.954 51.5434 229.805 38.0838 251.831 28.9256C273.857 19.7674 297.587 15.1063 321.547 15.232L321.078 99.5529C309.023 99.4898 297.084 101.835 286.002 106.442C274.92 111.049 264.932 117.821 256.659 126.336C248.386 134.851 242.005 144.928 237.911 155.94C233.818 166.952 232.1 178.663 232.865 190.347C233.63 202.031 236.86 213.437 242.356 223.857C250.636 239.556 263.719 252.38 279.807 260.565C295.895 268.75 314.198 271.895 332.201 269.567L343.657 353.152Z" fill="#5A81EA"/>
<path d="M320.603 15.229C353.703 15.2286 386.123 24.3594 414.088 41.5584C442.053 58.7574 464.413 83.317 478.565 112.378C492.717 141.439 498.078 173.806 494.025 205.712C489.972 237.617 476.672 267.749 455.671 292.598L388.558 239.101C399.124 226.599 405.816 211.44 407.856 195.387C409.895 179.335 407.198 163.05 400.078 148.429C392.958 133.807 381.708 121.451 367.638 112.798C353.568 104.145 337.256 99.5513 320.603 99.5519V15.229Z" fill="#E14B51"/>
<path d="M376.566 345.697C365.743 349.251 354.586 351.765 343.257 353.204L332 269.593C337.7 268.869 343.313 267.604 348.758 265.816L376.566 345.697Z" fill="#F0A4A7"/>
<path d="M406.228 332.865C396.077 338.407 385.381 342.949 374.3 346.424L347.619 266.183C353.194 264.434 358.575 262.149 363.682 259.36L406.228 332.865Z" fill="#E88689"/>
<path d="M456.108 292.078C442.117 308.768 424.985 322.721 405.625 333.193L363.378 259.525C373.119 254.257 381.739 247.237 388.778 238.839L456.108 292.078Z" fill="#E46B6F"/>
<path d="M478.795 392.813H480.865V398.708C480.865 399.407 480.712 399.995 480.408 400.472C480.11 400.947 479.672 401.323 479.15 401.551C478.612 401.793 477.991 401.914 477.284 401.914C476.572 401.914 475.946 401.793 475.404 401.551C474.881 401.321 474.439 400.945 474.134 400.472C473.829 399.995 473.677 399.407 473.677 398.708V392.813H475.754V398.708C475.754 399.095 475.813 399.411 475.931 399.658C476.054 399.9 476.23 400.079 476.458 400.194C476.687 400.305 476.961 400.361 477.284 400.361C477.605 400.361 477.879 400.305 478.102 400.194C478.331 400.079 478.503 399.9 478.617 399.658C478.735 399.411 478.795 399.095 478.795 398.708V392.813ZM487.138 399.423C487.141 399.285 487.117 399.147 487.068 399.016C487.015 398.884 486.928 398.767 486.815 398.677C486.656 398.552 486.481 398.449 486.294 398.369C486.008 398.239 485.713 398.13 485.411 398.042C485.008 397.915 484.611 397.767 484.224 397.598C483.869 397.44 483.535 397.244 483.227 397.012C482.944 396.801 482.709 396.537 482.535 396.235C482.369 395.939 482.287 395.594 482.287 395.199C482.287 394.817 482.374 394.472 482.548 394.164C482.72 393.855 482.964 393.592 483.277 393.374C483.612 393.142 483.986 392.971 484.382 392.869C484.837 392.745 485.307 392.685 485.78 392.689C486.456 392.689 487.051 392.806 487.563 393.041C488.08 393.271 488.482 393.596 488.77 394.015C489.057 394.43 489.202 394.914 489.202 395.464H487.144C487.144 395.222 487.091 395.008 486.985 394.823C486.881 394.631 486.717 394.475 486.516 394.379C486.309 394.272 486.048 394.219 485.735 394.219C485.43 394.219 485.174 394.264 484.966 394.355C484.78 394.428 484.619 394.552 484.503 394.712C484.403 394.86 484.349 395.034 484.35 395.211C484.349 395.351 484.389 395.488 484.465 395.606C484.545 395.721 484.66 395.83 484.807 395.933C484.96 396.031 485.147 396.126 485.366 396.217C485.587 396.307 485.839 396.393 486.122 396.475C486.573 396.611 487.013 396.78 487.436 396.981C487.822 397.167 488.145 397.376 488.408 397.611C488.67 397.845 488.867 398.11 488.998 398.405C489.134 398.702 489.202 399.036 489.202 399.411C489.202 399.81 489.121 400.164 488.961 400.472C488.8 400.784 488.565 401.055 488.275 401.261C487.978 401.474 487.623 401.637 487.208 401.748C486.793 401.859 486.33 401.914 485.818 401.914C485.351 401.914 484.892 401.857 484.439 401.742C484 401.629 483.584 401.446 483.208 401.199C482.847 400.96 482.547 400.644 482.331 400.274C482.116 399.896 482.008 399.448 482.008 398.93H484.078C484.078 399.201 484.118 399.432 484.199 399.621C484.279 399.806 484.393 399.955 484.541 400.071C484.694 400.186 484.877 400.268 485.094 400.318C485.31 400.366 485.551 400.392 485.818 400.392C486.126 400.392 486.376 400.351 486.566 400.268C486.744 400.197 486.895 400.074 486.998 399.917C487.091 399.768 487.14 399.597 487.138 399.423ZM493.348 401.791H491.316L491.329 400.237H493.348C493.809 400.237 494.199 400.135 494.516 399.929C494.833 399.72 495.075 399.411 495.24 399.004C495.405 398.592 495.488 398.093 495.488 397.506V397.092C495.488 396.648 495.441 396.258 495.348 395.921C495.27 395.611 495.13 395.32 494.935 395.063C494.758 394.837 494.524 394.659 494.255 394.545C493.965 394.426 493.651 394.367 493.335 394.373H491.278V392.813H493.335C493.962 392.813 494.533 392.916 495.05 393.122C495.558 393.319 496.017 393.619 496.395 394.003C496.777 394.386 497.071 394.837 497.278 395.36C497.492 395.918 497.597 396.509 497.589 397.105V397.506C497.589 398.143 497.485 398.724 497.278 399.251C497.081 399.757 496.781 400.218 496.395 400.608C496.019 400.986 495.572 401.278 495.056 401.483C494.513 401.693 493.933 401.798 493.348 401.791ZM492.491 392.813V401.791H490.421V392.813H492.491ZM502.675 392.813V401.791H500.611V392.813H502.675ZM505.488 392.813V394.373H497.856V392.813H505.488ZM510.327 392.813L507.056 402.562H505.615L508.885 392.813H510.327ZM516.269 392.813H518.339V398.708C518.339 399.407 518.187 399.995 517.882 400.472C517.585 400.947 517.146 401.323 516.625 401.551C516.088 401.793 515.465 401.914 514.758 401.914C514.048 401.914 513.421 401.793 512.879 401.551C512.355 401.321 511.914 400.945 511.609 400.472C511.304 399.995 511.152 399.407 511.152 398.708V392.813H513.228V398.708C513.228 399.095 513.287 399.411 513.406 399.658C513.529 399.9 513.704 400.079 513.933 400.194C514.161 400.305 514.437 400.361 514.758 400.361C515.08 400.361 515.353 400.305 515.578 400.194C515.806 400.079 515.977 399.9 516.092 399.658C516.21 399.411 516.269 399.095 516.269 398.708V392.813ZM524.612 399.423C524.615 399.285 524.591 399.147 524.543 399.016C524.49 398.884 524.402 398.767 524.289 398.677C524.13 398.552 523.955 398.449 523.768 398.369C523.482 398.239 523.188 398.13 522.886 398.042C522.482 397.915 522.085 397.766 521.698 397.598C521.344 397.44 521.009 397.244 520.701 397.012C520.419 396.801 520.184 396.537 520.009 396.235C519.838 395.915 519.753 395.559 519.762 395.199C519.762 394.817 519.848 394.472 520.022 394.164C520.196 393.855 520.439 393.592 520.752 393.374C521.086 393.142 521.46 392.971 521.857 392.869C522.311 392.745 522.782 392.685 523.254 392.689C523.931 392.689 524.526 392.806 525.038 393.041C525.555 393.271 525.957 393.596 526.244 394.015C526.533 394.43 526.676 394.914 526.676 395.464H524.619C524.619 395.222 524.566 395.008 524.461 394.823C524.355 394.631 524.191 394.476 523.991 394.379C523.783 394.272 523.522 394.219 523.209 394.219C522.905 394.219 522.648 394.264 522.442 394.355C522.255 394.428 522.093 394.552 521.977 394.712C521.877 394.86 521.824 395.034 521.825 395.211C521.825 395.356 521.864 395.487 521.939 395.606C522.02 395.721 522.134 395.83 522.283 395.933C522.435 396.031 522.621 396.126 522.841 396.217C523.061 396.307 523.313 396.393 523.596 396.475C524.092 396.628 524.531 396.796 524.911 396.981C525.296 397.167 525.62 397.376 525.883 397.611C526.144 397.845 526.342 398.11 526.473 398.405C526.609 398.702 526.676 399.036 526.676 399.411C526.676 399.81 526.596 400.164 526.435 400.472C526.274 400.784 526.039 401.055 525.749 401.261C525.453 401.474 525.097 401.637 524.682 401.748C524.229 401.864 523.761 401.92 523.292 401.914C522.826 401.914 522.367 401.857 521.915 401.742C521.475 401.629 521.059 401.446 520.682 401.199C520.321 400.96 520.021 400.643 519.806 400.274C519.59 399.896 519.482 399.448 519.482 398.93H521.552C521.552 399.201 521.592 399.432 521.673 399.621C521.753 399.806 521.868 399.955 522.015 400.071C522.168 400.186 522.352 400.268 522.568 400.318C522.784 400.366 523.025 400.392 523.292 400.392C523.601 400.392 523.851 400.351 524.041 400.268C524.219 400.197 524.369 400.074 524.473 399.917C524.566 399.768 524.615 399.597 524.612 399.423ZM530.822 401.791H528.79L528.803 400.237H530.822C531.284 400.237 531.673 400.135 531.99 399.929C532.308 399.72 532.549 399.411 532.715 399.004C532.88 398.592 532.962 398.093 532.962 397.506V397.092C532.962 396.648 532.915 396.258 532.823 395.921C532.745 395.611 532.604 395.32 532.409 395.063C532.232 394.837 531.999 394.659 531.731 394.545C531.44 394.426 531.126 394.367 530.81 394.373H528.752V392.813H530.81C531.436 392.813 532.007 392.916 532.524 393.122C533.032 393.319 533.491 393.619 533.87 394.003C534.251 394.386 534.545 394.837 534.753 395.36C534.967 395.918 535.072 396.509 535.063 397.105V397.506C535.063 398.143 534.961 398.724 534.753 399.251C534.556 399.756 534.256 400.218 533.87 400.608C533.493 400.986 533.047 401.278 532.53 401.483C531.987 401.693 531.407 401.798 530.822 401.791ZM529.965 392.813V401.791H527.895V392.813H529.965ZM543.953 392.813V401.791H541.889L538.397 395.989V401.791H536.327V392.813H538.397L541.896 398.616V392.813H543.953Z" fill="white"/>
<path d="M501.725 439.811H503.618C504.157 439.811 504.603 439.719 504.951 439.533C505.308 439.348 505.571 439.087 505.737 438.747C505.912 438.408 505.999 438.012 505.999 437.556C505.999 437.163 505.92 436.813 505.761 436.504C505.602 436.195 505.348 435.941 505.035 435.776C504.717 435.591 504.304 435.498 503.796 435.498C503.435 435.498 503.078 435.573 502.749 435.718C502.432 435.85 502.157 436.062 501.952 436.331C501.741 436.604 501.632 436.938 501.641 437.279H497.915C497.915 436.339 498.177 435.525 498.701 434.839C499.233 434.154 499.935 433.625 500.808 433.255C501.689 432.878 502.649 432.689 503.689 432.689C504.888 432.689 505.939 432.874 506.844 433.243C507.756 433.606 508.463 434.146 508.963 434.862C509.471 435.572 509.726 436.45 509.726 437.499C509.726 438.046 509.59 438.574 509.32 439.083C509.059 439.584 508.682 440.031 508.19 440.424C507.67 440.828 507.081 441.141 506.451 441.349C505.784 441.572 505.043 441.684 504.225 441.684H501.725V439.811ZM501.725 442.528V440.69H504.225C505.129 440.69 505.939 440.79 506.654 440.99C507.368 441.191 507.975 441.48 508.475 441.858C508.975 442.235 509.356 442.694 509.618 443.233C509.88 443.773 510.011 444.374 510.011 445.037C510.011 445.824 509.852 446.525 509.535 447.142C509.22 447.755 508.764 448.289 508.202 448.702C507.597 449.142 506.915 449.471 506.189 449.674C505.376 449.896 504.534 450.005 503.689 449.997C502.961 449.997 502.236 449.9 501.534 449.709C500.841 449.525 500.184 449.228 499.594 448.829C499.018 448.433 498.542 447.915 498.201 447.315C497.851 446.699 497.677 445.966 497.677 445.118H501.404C501.404 445.511 501.506 445.866 501.713 446.182C501.928 446.49 502.217 446.737 502.582 446.922C502.956 447.099 503.36 447.187 503.796 447.187C504.32 447.187 504.765 447.095 505.129 446.91C505.503 446.717 505.784 446.456 505.975 446.124C506.174 445.792 506.272 445.412 506.272 444.979C506.272 444.394 506.166 443.924 505.951 443.569C505.752 443.213 505.433 442.935 505.047 442.783C504.649 442.613 504.173 442.528 503.618 442.528H501.725ZM512.19 437.06V436.169C512.19 435.529 512.333 434.948 512.618 434.423C512.91 433.893 513.352 433.456 513.892 433.163C514.464 432.847 515.162 432.689 515.988 432.689C516.845 432.689 517.555 432.847 518.119 433.163C518.682 433.479 519.103 433.899 519.38 434.423C519.666 434.948 519.809 435.529 519.809 436.169V437.06C519.809 437.684 519.666 438.258 519.38 438.782C519.103 439.307 518.682 439.726 518.119 440.042C517.563 440.358 516.864 440.516 516.023 440.516C515.182 440.516 514.476 440.358 513.904 440.042C513.362 439.748 512.917 439.311 512.618 438.782C512.331 438.251 512.184 437.659 512.19 437.06ZM514.618 436.169V437.06C514.618 437.314 514.67 437.552 514.773 437.776C514.876 438 515.031 438.181 515.237 438.32C515.444 438.458 515.701 438.527 516.012 438.527C516.329 438.527 516.587 438.458 516.785 438.32C516.984 438.181 517.131 438 517.225 437.776C517.329 437.552 517.38 437.314 517.38 437.06V436.169C517.38 435.907 517.329 435.664 517.225 435.441C517.136 435.216 516.978 435.022 516.773 434.885C516.567 434.747 516.305 434.677 515.988 434.677C515.686 434.677 515.432 434.747 515.225 434.885C515.028 435.024 514.876 435.209 514.773 435.441C514.67 435.664 514.618 435.907 514.618 436.169ZM520.452 446.529V445.638C520.452 445.006 520.595 444.429 520.88 443.904C521.179 443.375 521.624 442.939 522.166 442.644C522.738 442.328 523.44 442.17 524.274 442.17C525.122 442.17 525.829 442.328 526.393 442.644C526.956 442.96 527.377 443.38 527.654 443.904C527.94 444.429 528.084 445.006 528.084 445.638V446.529C528.084 447.161 527.94 447.739 527.654 448.263C527.377 448.788 526.956 449.207 526.393 449.523C525.837 449.839 525.142 449.997 524.309 449.997C523.46 449.997 522.75 449.839 522.178 449.523C521.631 449.231 521.181 448.794 520.88 448.263C520.592 447.729 520.445 447.133 520.452 446.529ZM522.893 445.638V446.529C522.893 446.791 522.952 447.033 523.071 447.257C523.19 447.481 523.357 447.662 523.571 447.801C523.786 447.94 524.027 448.008 524.297 448.008C524.67 448.008 524.953 447.94 525.142 447.801C525.341 447.662 525.476 447.481 525.547 447.257C525.618 447.033 525.654 446.791 525.654 446.529V445.638C525.654 445.377 525.603 445.133 525.5 444.91C525.407 444.69 525.25 444.501 525.047 444.367C524.841 444.228 524.583 444.158 524.274 444.158C523.963 444.158 523.706 444.228 523.499 444.367C523.294 444.505 523.138 444.686 523.035 444.91C522.939 445.142 522.89 445.389 522.893 445.638ZM525.202 435.348L516.737 448.506L514.964 447.616L523.429 434.458L525.202 435.348Z" fill="#EB787C"/>
<path d="M245.963 400.237V401.791H241.041V400.237H245.963ZM241.746 392.813V401.791H239.677V392.813H241.746ZM245.327 396.426V397.931H241.041V396.426H245.327ZM245.969 392.813V394.373H241.041V392.813H245.969ZM251.41 392.813V401.791H249.346V392.813H251.41ZM254.223 392.813V394.373H246.591V392.813H254.223ZM261.449 396.426V397.981H256.661V396.426H261.449ZM257.315 392.813V401.791H255.245V392.813H257.315ZM262.877 392.813V401.791H260.813V392.813H262.877ZM268.23 392.813L264.96 402.562H263.518L266.789 392.813H268.23ZM274.173 392.813H276.243V398.708C276.243 399.407 276.09 399.995 275.786 400.472C275.488 400.947 275.05 401.323 274.528 401.551C273.991 401.793 273.368 401.914 272.662 401.914C271.951 401.914 271.324 401.793 270.782 401.551C270.259 401.321 269.817 400.945 269.513 400.472C269.207 399.995 269.056 399.407 269.056 398.708V392.813H271.132V398.708C271.132 399.095 271.191 399.411 271.309 399.658C271.432 399.9 271.608 400.079 271.836 400.194C272.065 400.305 272.34 400.361 272.662 400.361C272.983 400.361 273.257 400.305 273.481 400.194C273.71 400.079 273.881 399.9 273.995 399.658C274.114 399.411 274.173 399.095 274.173 398.708V392.813ZM282.516 399.423C282.518 399.285 282.495 399.146 282.446 399.016C282.393 398.884 282.306 398.767 282.192 398.677C282.033 398.552 281.858 398.449 281.671 398.369C281.386 398.239 281.091 398.13 280.789 398.042C280.385 397.915 279.989 397.766 279.601 397.598C279.247 397.44 278.913 397.244 278.605 397.012C278.323 396.801 278.087 396.537 277.913 396.235C277.742 395.915 277.657 395.559 277.665 395.199C277.665 394.817 277.752 394.472 277.926 394.164C278.099 393.855 278.343 393.592 278.656 393.374C278.99 393.142 279.364 392.971 279.76 392.869C280.215 392.745 280.685 392.685 281.157 392.689C281.835 392.689 282.429 392.806 282.942 393.041C283.458 393.271 283.86 393.596 284.148 394.015C284.436 394.43 284.58 394.914 284.58 395.464H282.523C282.523 395.222 282.47 395.008 282.364 394.823C282.259 394.631 282.095 394.476 281.894 394.379C281.686 394.272 281.426 394.219 281.113 394.219C280.85 394.211 280.588 394.258 280.345 394.355C280.158 394.428 279.997 394.552 279.881 394.712C279.781 394.861 279.728 395.034 279.729 395.211C279.729 395.356 279.767 395.487 279.843 395.606C279.924 395.721 280.038 395.83 280.186 395.933C280.338 396.031 280.525 396.126 280.744 396.217C280.965 396.307 281.216 396.393 281.501 396.475C281.952 396.61 282.391 396.78 282.814 396.981C283.2 397.167 283.524 397.376 283.786 397.611C284.049 397.845 284.246 398.11 284.376 398.405C284.512 398.702 284.58 399.036 284.58 399.411C284.58 399.81 284.499 400.164 284.338 400.472C284.178 400.784 283.943 401.055 283.653 401.261C283.356 401.474 283.001 401.637 282.586 401.748C282.132 401.864 281.664 401.92 281.195 401.914C280.73 401.914 280.27 401.857 279.818 401.742C279.379 401.629 278.963 401.446 278.586 401.199C278.225 400.96 277.925 400.644 277.71 400.274C277.493 399.896 277.386 399.448 277.386 398.93H279.456C279.456 399.201 279.496 399.432 279.576 399.621C279.657 399.806 279.771 399.955 279.919 400.071C280.072 400.186 280.256 400.268 280.472 400.318C280.687 400.366 280.929 400.392 281.195 400.392C281.505 400.392 281.754 400.351 281.945 400.268C282.122 400.197 282.273 400.074 282.376 399.917C282.47 399.768 282.518 399.597 282.516 399.423ZM288.726 401.791H286.694L286.707 400.237H288.726C289.187 400.237 289.576 400.135 289.895 399.929C290.212 399.72 290.453 399.411 290.618 399.004C290.783 398.592 290.866 398.093 290.866 397.506V397.092C290.866 396.648 290.819 396.258 290.726 395.921C290.649 395.611 290.508 395.319 290.313 395.063C290.136 394.837 289.902 394.659 289.634 394.545C289.343 394.426 289.029 394.367 288.713 394.373H286.656V392.813H288.713C289.34 392.813 289.912 392.916 290.428 393.122C290.949 393.327 291.397 393.621 291.774 394.003C292.154 394.386 292.449 394.837 292.656 395.36C292.871 395.918 292.976 396.509 292.968 397.105V397.506C292.968 398.143 292.864 398.724 292.656 399.251C292.46 399.756 292.159 400.218 291.774 400.608C291.397 400.986 290.951 401.278 290.434 401.483C289.891 401.693 289.311 401.798 288.726 401.791ZM287.869 392.813V401.791H285.799V392.813H287.869ZM301.857 392.813V401.791H299.793L296.3 395.989V401.791H294.231V392.813H296.3L299.8 398.616V392.813H301.857Z" fill="white"/>
<path d="M259.724 442.811H261.617C262.156 442.811 262.602 442.719 262.951 442.533C263.307 442.348 263.57 442.087 263.736 441.747C263.911 441.408 263.998 441.012 263.998 440.556C263.998 440.163 263.919 439.813 263.76 439.504C263.601 439.195 263.347 438.941 263.034 438.776C262.716 438.591 262.304 438.498 261.796 438.498C261.431 438.498 261.081 438.572 260.748 438.718C260.431 438.85 260.156 439.062 259.951 439.331C259.744 439.592 259.641 439.908 259.641 440.279H255.914C255.914 439.339 256.177 438.525 256.7 437.839C257.232 437.154 257.934 436.625 258.808 436.255C259.688 435.878 260.649 435.689 261.688 435.689C262.887 435.689 263.939 435.874 264.843 436.243C265.757 436.606 266.462 437.146 266.962 437.862C267.47 438.572 267.725 439.45 267.725 440.499C267.724 441.051 267.585 441.594 267.32 442.083C267.058 442.584 266.681 443.031 266.189 443.424C265.669 443.828 265.081 444.141 264.451 444.349C263.784 444.572 263.042 444.684 262.224 444.684H259.724V442.811ZM259.724 445.528V443.69H262.224C263.13 443.69 263.939 443.79 264.653 443.99C265.367 444.191 265.974 444.48 266.474 444.858C266.974 445.235 267.355 445.694 267.617 446.233C267.879 446.773 268.01 447.374 268.01 448.037C268.01 448.824 267.851 449.525 267.534 450.142C267.22 450.755 266.763 451.289 266.201 451.702C265.596 452.142 264.914 452.471 264.188 452.674C263.375 452.896 262.533 453.005 261.688 452.997C260.96 452.997 260.235 452.9 259.533 452.709C258.84 452.525 258.184 452.228 257.593 451.829C257.017 451.433 256.541 450.915 256.2 450.315C255.851 449.699 255.677 448.966 255.677 448.118H259.403C259.403 448.511 259.505 448.866 259.712 449.182C259.927 449.49 260.216 449.737 260.581 449.922C260.96 450.1 261.375 450.191 261.796 450.187C262.319 450.187 262.764 450.095 263.13 449.91C263.502 449.717 263.784 449.456 263.974 449.124C264.173 448.792 264.272 448.412 264.272 447.979C264.272 447.394 264.165 446.924 263.951 446.569C263.752 446.213 263.432 445.935 263.046 445.783C262.648 445.613 262.172 445.528 261.617 445.528H259.724ZM270.189 440.06V439.169C270.189 438.529 270.332 437.948 270.617 437.423C270.909 436.893 271.351 436.456 271.892 436.163C272.463 435.847 273.161 435.689 273.987 435.689C274.844 435.689 275.554 435.847 276.118 436.163C276.682 436.479 277.102 436.899 277.379 437.423C277.666 437.948 277.808 438.529 277.808 439.169V440.06C277.808 440.684 277.666 441.258 277.379 441.782C277.095 442.313 276.656 442.752 276.118 443.042C275.562 443.358 274.864 443.516 274.023 443.516C273.181 443.516 272.475 443.358 271.903 443.042C271.361 442.748 270.916 442.311 270.617 441.782C270.33 441.251 270.183 440.659 270.189 440.06ZM272.617 439.169V440.06C272.617 440.314 272.669 440.552 272.772 440.776C272.876 441 273.031 441.181 273.236 441.32C273.443 441.458 273.701 441.527 274.011 441.527C274.328 441.527 274.586 441.458 274.784 441.32C274.983 441.181 275.13 441 275.224 440.776C275.328 440.552 275.379 440.314 275.379 440.06V439.169C275.379 438.907 275.328 438.664 275.224 438.441C275.135 438.216 274.977 438.022 274.772 437.885C274.566 437.747 274.304 437.677 273.987 437.677C273.685 437.677 273.431 437.747 273.224 437.885C273.024 438.027 272.868 438.219 272.772 438.441C272.669 438.664 272.617 438.907 272.617 439.169ZM278.451 449.529V448.638C278.451 448.006 278.594 447.429 278.879 446.904C279.178 446.375 279.624 445.939 280.166 445.644C280.737 445.328 281.44 445.17 282.273 445.17C283.122 445.17 283.828 445.328 284.392 445.644C284.956 445.96 285.376 446.38 285.653 446.904C285.94 447.429 286.083 448.006 286.083 448.638V449.529C286.083 450.161 285.94 450.739 285.653 451.263C285.369 451.794 284.931 452.233 284.392 452.523C283.836 452.839 283.142 452.997 282.309 452.997C281.459 452.997 280.749 452.839 280.177 452.523C279.63 452.231 279.18 451.794 278.879 451.263C278.591 450.729 278.444 450.133 278.451 449.529ZM280.892 448.638V449.529C280.892 449.791 280.951 450.033 281.07 450.257C281.189 450.481 281.356 450.662 281.57 450.801C281.785 450.94 282.026 451.008 282.297 451.008C282.669 451.008 282.952 450.94 283.142 450.801C283.34 450.662 283.476 450.481 283.546 450.257C283.62 450.021 283.656 449.776 283.653 449.529V448.638C283.653 448.377 283.602 448.133 283.499 447.91C283.406 447.69 283.249 447.501 283.046 447.367C282.84 447.228 282.582 447.158 282.273 447.158C281.963 447.158 281.705 447.228 281.498 447.367C281.295 447.503 281.134 447.691 281.034 447.91C280.938 448.142 280.889 448.389 280.892 448.638ZM283.201 438.348L274.736 451.506L272.963 450.616L281.428 437.458L283.201 438.348Z" fill="#F0A4A7"/>
<path d="M428.677 298.189L471.137 339.695C472.444 340.973 474.201 341.689 476.03 341.689H554.177" stroke="#E46B6F" stroke-width="2"/>
<path d="M383.677 328.689L425.262 414.249C426.433 416.659 428.878 418.189 431.558 418.189H508.177" stroke="#E88689" stroke-width="2"/>
<path d="M355.677 307.689L378.299 410.18C379.263 414.549 375.937 418.689 371.463 418.689H270.177" stroke="#F0A4A7" stroke-width="2"/>
<circle cx="554.177" cy="341.189" r="4.5" fill="#E46B6F"/>
<circle cx="508.177" cy="417.689" r="4.5" fill="#E88689"/>
<circle cx="270.177" cy="419.189" r="4.5" fill="#F0A4A7"/>
<path d="M527.372 320.919H524.997L524.984 319.574H526.947C527.294 319.574 527.575 319.533 527.791 319.45C527.988 319.386 528.158 319.261 528.274 319.094C528.376 318.933 528.426 318.736 528.426 318.501C528.426 318.234 528.376 318.018 528.274 317.854C528.163 317.682 527.991 317.555 527.791 317.496C527.575 317.418 527.296 317.379 526.953 317.379H525.747V324.797H523.677V315.819H526.953C527.507 315.819 528.002 315.868 528.439 315.967C528.875 316.065 529.245 316.218 529.55 316.423C529.859 316.629 530.093 316.886 530.255 317.194C530.416 317.502 530.496 317.866 530.496 318.285C530.496 318.652 530.411 318.993 530.242 319.309C530.077 319.626 529.81 319.883 529.442 320.079C529.073 320.277 528.58 320.384 527.963 320.4L527.372 320.919ZM527.29 324.797H524.47L525.22 323.243H527.29C527.607 323.243 527.865 323.194 528.064 323.095C528.249 323.009 528.403 322.869 528.503 322.695C528.595 322.526 528.642 322.337 528.642 322.127C528.648 321.906 528.602 321.687 528.509 321.486C528.425 321.306 528.282 321.158 528.102 321.066C527.921 320.967 527.677 320.919 527.372 320.919H525.518L525.531 319.574H527.798L528.28 320.105C528.869 320.092 529.338 320.185 529.689 320.382C530.046 320.575 530.301 320.83 530.458 321.147C530.614 321.463 530.693 321.798 530.693 322.152C530.693 322.735 530.564 323.225 530.305 323.62C530.048 324.01 529.664 324.304 529.156 324.502C528.652 324.698 528.03 324.797 527.29 324.797ZM536.16 315.819V324.797H534.096V315.819H536.16ZM538.973 315.819V317.379H531.34V315.819H538.973ZM545.132 321.788H547.189C547.155 322.405 546.981 322.95 546.668 323.422C546.359 323.891 545.929 324.258 545.379 324.526C544.829 324.79 544.175 324.92 543.417 324.92C542.812 324.92 542.27 324.82 541.792 324.619C541.323 324.425 540.906 324.129 540.572 323.755C540.229 323.354 539.97 322.891 539.811 322.392C539.637 321.858 539.55 321.255 539.55 320.585V320.037C539.55 319.367 539.641 318.764 539.824 318.23C539.987 317.728 540.253 317.262 540.604 316.861C540.943 316.482 541.349 316.192 541.823 315.992C542.325 315.785 542.866 315.682 543.411 315.689C544.199 315.689 544.862 315.827 545.404 316.102C545.946 316.378 546.365 316.756 546.662 317.237C546.962 317.718 547.142 318.267 547.202 318.883H545.138C545.121 318.534 545.053 318.24 544.935 318.002C544.821 317.765 544.629 317.571 544.388 317.453C544.144 317.329 543.817 317.267 543.411 317.267C543.115 317.267 542.854 317.322 542.63 317.428C542.41 317.535 542.225 317.702 542.078 317.928C541.934 318.153 541.826 318.441 541.753 318.791C541.681 319.136 541.645 319.547 541.645 320.024V320.585C541.645 321.059 541.677 321.468 541.741 321.813C541.804 322.158 541.906 322.444 542.046 322.67C542.189 322.896 542.374 323.064 542.599 323.176C542.822 323.286 543.096 323.342 543.417 323.342C543.785 323.342 544.093 323.286 544.338 323.176C544.584 323.06 544.771 322.888 544.903 322.658C545.034 322.427 545.111 322.137 545.132 321.788ZM552.154 315.819L548.885 325.568H547.442L550.713 315.819H552.154ZM558.097 315.819H560.167V321.714C560.167 322.413 560.014 323.001 559.71 323.478C559.412 323.953 558.974 324.329 558.452 324.557C557.915 324.799 557.292 324.92 556.586 324.92C555.875 324.92 555.248 324.799 554.706 324.557C554.183 324.327 553.741 323.951 553.437 323.478C553.131 323.001 552.98 322.413 552.98 321.714V315.819H555.056V321.714C555.056 322.101 555.115 322.417 555.233 322.664C555.356 322.906 555.532 323.085 555.76 323.2C555.989 323.311 556.264 323.367 556.586 323.367C556.907 323.367 557.181 323.311 557.405 323.2C557.634 323.085 557.806 322.906 557.919 322.664C558.038 322.417 558.097 322.101 558.097 321.714V315.819ZM566.44 322.429C566.443 322.29 566.419 322.152 566.37 322.022C566.317 321.89 566.23 321.773 566.117 321.683C565.958 321.558 565.782 321.455 565.596 321.375C565.31 321.245 565.015 321.136 564.713 321.048C564.31 320.92 563.913 320.772 563.526 320.604C563.172 320.446 562.837 320.25 562.529 320.018C562.247 319.807 562.011 319.543 561.837 319.241C561.666 318.921 561.581 318.565 561.589 318.205C561.589 317.823 561.676 317.478 561.85 317.17C562.023 316.861 562.267 316.598 562.58 316.38C562.914 316.148 563.288 315.977 563.684 315.875C564.139 315.751 564.609 315.691 565.082 315.695C565.759 315.695 566.353 315.812 566.866 316.047C567.382 316.277 567.784 316.601 568.072 317.021C568.36 317.436 568.504 317.92 568.504 318.47H566.447C566.447 318.228 566.394 318.014 566.288 317.829C566.183 317.637 566.019 317.481 565.818 317.385C565.611 317.278 565.35 317.225 565.037 317.225C564.774 317.217 564.512 317.264 564.269 317.36C564.082 317.434 563.921 317.558 563.805 317.718C563.705 317.867 563.652 318.04 563.653 318.217C563.653 318.362 563.691 318.493 563.767 318.612C563.848 318.727 563.962 318.836 564.11 318.939C564.262 319.037 564.449 319.132 564.668 319.223C564.889 319.313 565.14 319.399 565.425 319.481C565.876 319.616 566.315 319.786 566.738 319.987C567.124 320.173 567.448 320.382 567.711 320.617C567.973 320.851 568.17 321.116 568.3 321.411C568.436 321.708 568.504 322.042 568.504 322.417C568.504 322.816 568.423 323.17 568.262 323.478C568.102 323.79 567.867 324.061 567.577 324.267C567.28 324.48 566.925 324.643 566.51 324.754C566.056 324.87 565.589 324.926 565.12 324.92C564.654 324.92 564.194 324.863 563.742 324.748C563.303 324.635 562.887 324.452 562.51 324.205C562.149 323.966 561.849 323.65 561.634 323.28C561.418 322.902 561.31 322.454 561.31 321.936H563.38C563.38 322.207 563.42 322.438 563.501 322.627C563.581 322.812 563.695 322.961 563.843 323.077C563.996 323.192 564.18 323.274 564.396 323.324C564.611 323.372 564.853 323.398 565.12 323.398C565.429 323.398 565.678 323.357 565.869 323.274C566.046 323.203 566.197 323.08 566.3 322.923C566.394 322.774 566.442 322.603 566.44 322.429ZM572.65 324.797H570.618L570.631 323.243H572.65C573.111 323.243 573.5 323.141 573.819 322.935C574.136 322.726 574.377 322.417 574.543 322.01C574.707 321.598 574.79 321.099 574.79 320.512V320.098C574.79 319.654 574.743 319.264 574.65 318.927C574.573 318.617 574.432 318.325 574.237 318.069C574.06 317.843 573.826 317.665 573.558 317.551C573.267 317.432 572.953 317.373 572.637 317.379H570.58V315.819H572.637C573.264 315.819 573.836 315.922 574.352 316.127C574.873 316.333 575.321 316.627 575.698 317.009C576.079 317.392 576.373 317.843 576.581 318.366C576.795 318.924 576.9 319.515 576.892 320.111V320.512C576.892 321.149 576.788 321.73 576.581 322.257C576.384 322.762 576.084 323.224 575.698 323.614C575.321 323.992 574.875 324.284 574.358 324.489C573.815 324.699 573.235 324.804 572.65 324.797ZM571.793 315.819V324.797H569.723V315.819H571.793ZM585.781 315.819V324.797H583.717L580.225 318.995V324.797H578.156V315.819H580.225L583.724 321.622V315.819H585.781Z" fill="white"/>
<path d="M547.022 367.182L544.07 366.499L545.081 357.931H555.01V360.787H548.129L547.713 364.337C547.927 364.214 548.264 364.079 548.724 363.932C549.223 363.772 549.746 363.694 550.272 363.701C551.122 363.701 551.875 363.829 552.534 364.083C553.193 364.337 553.749 364.707 554.201 365.193C554.662 365.671 555.006 366.26 555.237 366.962C555.475 367.663 555.594 368.461 555.594 369.355C555.594 370.096 555.475 370.804 555.237 371.483C555.001 372.15 554.628 372.763 554.142 373.287C553.658 373.81 553.042 374.227 552.296 374.535C551.55 374.843 550.673 374.997 549.665 374.997C548.914 374.999 548.166 374.886 547.451 374.662C546.755 374.448 546.103 374.119 545.522 373.691C544.964 373.266 544.505 372.73 544.177 372.119C543.851 371.502 543.685 370.808 543.677 370.037H547.391C547.431 370.484 547.546 370.87 547.736 371.194C547.927 371.51 548.185 371.756 548.511 371.933C548.836 372.103 549.212 372.187 549.641 372.187C550.054 372.187 550.403 372.111 550.689 371.957C550.971 371.798 551.205 371.571 551.367 371.298C551.542 371.02 551.669 370.697 551.748 370.326C551.828 369.956 551.867 369.559 551.867 369.135C551.873 368.737 551.821 368.34 551.712 367.956C551.622 367.626 551.46 367.318 551.236 367.054C551.018 366.796 550.735 366.597 550.415 366.476C550.09 366.337 549.697 366.268 549.236 366.268C548.633 366.268 548.161 366.365 547.82 366.557C547.518 366.718 547.248 366.93 547.022 367.182ZM557.749 362.06V361.169C557.749 360.529 557.892 359.948 558.177 359.423C558.469 358.893 558.911 358.456 559.452 358.163C560.022 357.847 560.721 357.689 561.547 357.689C562.404 357.689 563.114 357.847 563.678 358.163C564.241 358.479 564.662 358.899 564.939 359.423C565.226 359.948 565.368 360.529 565.368 361.169V362.06C565.368 362.684 565.226 363.258 564.939 363.782C564.655 364.313 564.216 364.752 563.678 365.042C563.122 365.358 562.424 365.516 561.583 365.516C560.741 365.516 560.034 365.358 559.463 365.042C558.921 364.748 558.475 364.311 558.177 363.782C557.89 363.251 557.743 362.659 557.749 362.06ZM560.177 361.169V362.06C560.177 362.314 560.229 362.552 560.332 362.776C560.436 363 560.59 363.181 560.796 363.32C561.003 363.458 561.261 363.527 561.571 363.527C561.888 363.527 562.145 363.458 562.344 363.32C562.543 363.181 562.689 363 562.784 362.776C562.888 362.552 562.939 362.314 562.939 362.06V361.169C562.939 360.907 562.888 360.664 562.784 360.441C562.695 360.216 562.537 360.022 562.332 359.885C562.125 359.747 561.864 359.677 561.547 359.677C561.245 359.677 560.991 359.747 560.784 359.885C560.584 360.027 560.428 360.219 560.332 360.441C560.229 360.664 560.177 360.907 560.177 361.169ZM566.011 371.529V370.638C566.011 370.006 566.154 369.429 566.439 368.904C566.738 368.375 567.184 367.939 567.726 367.644C568.297 367.328 568.999 367.17 569.833 367.17C570.682 367.17 571.388 367.328 571.952 367.644C572.516 367.96 572.936 368.38 573.213 368.904C573.5 369.429 573.642 370.006 573.642 370.638V371.529C573.642 372.161 573.5 372.739 573.213 373.263C572.929 373.794 572.49 374.233 571.952 374.523C571.396 374.839 570.702 374.997 569.869 374.997C569.019 374.997 568.309 374.839 567.737 374.523C567.19 374.231 566.74 373.794 566.439 373.263C566.151 372.729 566.004 372.133 566.011 371.529ZM568.451 370.638V371.529C568.451 371.791 568.511 372.033 568.63 372.257C568.749 372.481 568.916 372.662 569.13 372.801C569.345 372.94 569.586 373.008 569.857 373.008C570.229 373.008 570.511 372.94 570.702 372.801C570.9 372.662 571.035 372.481 571.106 372.257C571.18 372.021 571.216 371.776 571.213 371.529V370.638C571.213 370.377 571.162 370.133 571.058 369.91C570.966 369.69 570.809 369.501 570.606 369.367C570.4 369.228 570.142 369.158 569.833 369.158C569.523 369.158 569.265 369.228 569.058 369.367C568.855 369.503 568.694 369.691 568.594 369.91C568.498 370.142 568.449 370.389 568.451 370.638ZM570.761 360.348L562.296 373.506L560.523 372.616L568.987 359.458L570.761 360.348Z" fill="#E46B6F"/>
<path d="M560.724 47.8117H562.617C563.156 47.8117 563.602 47.7196 563.951 47.5344C564.307 47.3493 564.57 47.0876 564.736 46.7483C564.911 46.409 564.998 46.0116 564.998 45.557C564.998 45.1644 564.919 44.8135 564.76 44.5053C564.6 44.1959 564.347 43.9415 564.034 43.7763C563.716 43.5912 563.303 43.4991 562.796 43.4991C562.431 43.4991 562.081 43.5727 561.748 43.7191C561.431 43.8508 561.156 44.0623 560.951 44.3317C560.744 44.5935 560.641 44.9095 560.641 45.2798H556.914C556.914 44.3395 557.177 43.5262 557.7 42.8399C558.232 42.1536 558.934 41.6263 559.808 41.256C560.688 40.878 561.648 40.689 562.688 40.689C563.887 40.689 564.939 40.8741 565.843 41.2444C566.757 41.6069 567.462 42.1459 567.962 42.8632C568.47 43.5727 568.725 44.451 568.725 45.4998C568.725 46.0465 568.589 46.5748 568.32 47.0837C568.058 47.5848 567.681 48.0317 567.189 48.4243C566.669 48.8289 566.081 49.1422 565.45 49.35C564.784 49.573 564.042 49.6844 563.224 49.6844H560.724V47.8117ZM560.724 50.5287V48.6909H563.224C564.129 48.6909 564.939 48.7907 565.653 48.9914C566.367 49.192 566.974 49.4809 567.474 49.8579C567.974 50.236 568.355 50.6945 568.617 51.2344C568.879 51.7734 569.01 52.3753 569.01 53.0384C569.01 53.8245 568.851 54.5253 568.534 55.1428C568.219 55.7557 567.763 56.2898 567.201 56.7034C566.596 57.1429 565.914 57.472 565.188 57.6747C564.375 57.896 563.533 58.005 562.688 57.9985C561.96 57.9972 561.235 57.9001 560.533 57.7096C559.84 57.5262 559.183 57.2288 558.593 56.8304C558.017 56.4337 557.541 55.9158 557.2 55.3153C556.85 54.6988 556.677 53.967 556.677 53.1188H560.403C560.403 53.5124 560.505 53.8662 560.712 54.1822C560.927 54.4914 561.216 54.7376 561.581 54.9228C561.96 55.1011 562.375 55.192 562.796 55.1883C563.319 55.1883 563.764 55.0963 564.129 54.9111C564.484 54.7355 564.778 54.4621 564.974 54.125C565.173 53.7935 565.272 53.4115 565.272 52.9802C565.272 52.3947 565.165 51.9246 564.95 51.5698C564.752 51.2138 564.432 50.9358 564.046 50.7837C563.648 50.614 563.172 50.5287 562.617 50.5287H560.724ZM580.154 40.7239H580.725V43.5912H580.51C579.677 43.5912 578.915 43.7075 578.225 43.9382C577.565 44.1563 576.961 44.5071 576.451 44.9676C575.94 45.4296 575.545 45.9989 575.296 46.632C575.035 47.2873 574.903 48.0433 574.903 48.8983V51.7666C574.903 52.3443 574.955 52.8493 575.058 53.2807C575.169 53.7043 575.328 54.0591 575.534 54.3441C575.748 54.6223 576.007 54.8336 576.308 54.9809C576.61 55.1195 576.951 55.1883 577.332 55.1883C577.674 55.1883 577.987 55.1156 578.272 54.9693C578.564 54.8177 578.816 54.6039 579.01 54.3441C579.217 54.0746 579.375 53.7625 579.487 53.4077C579.601 53.0247 579.657 52.6276 579.654 52.229C579.654 51.7811 579.594 51.3769 579.475 51.0144C579.377 50.6707 579.211 50.3488 578.987 50.0664C578.786 49.8093 578.525 49.6031 578.225 49.4654C577.914 49.3167 577.571 49.2414 577.224 49.2453C576.7 49.2453 576.248 49.3607 575.867 49.5923C575.5 49.8108 575.196 50.1177 574.987 50.4832C574.787 50.8217 574.677 51.203 574.665 51.5931L573.677 50.7953C573.677 50.2709 573.784 49.7542 573.999 49.2453C574.222 48.7273 574.54 48.2532 574.939 47.8466C575.357 47.414 575.864 47.0713 576.427 46.8404C577.022 46.5864 577.701 46.4594 578.463 46.4594C579.265 46.4594 579.971 46.6097 580.582 46.9102C581.185 47.1968 581.711 47.6163 582.118 48.1354C582.538 48.6598 582.852 49.2725 583.058 49.9743C583.277 50.6988 583.386 51.4506 583.38 52.2057C583.38 53.0228 583.233 53.7857 582.94 54.4953C582.664 55.18 582.251 55.8047 581.725 56.3331C581.192 56.8635 580.551 57.2807 579.843 57.5584C579.122 57.8521 578.316 57.9985 577.427 57.9985C576.507 57.9985 575.665 57.8405 574.903 57.5245C574.155 57.2117 573.481 56.7508 572.927 56.1713C572.355 55.5512 571.914 54.8284 571.629 54.0436C571.328 53.2186 571.177 52.2939 571.177 51.2693V49.9161C571.177 48.5135 571.4 47.2495 571.844 46.1241C572.296 44.9987 572.923 44.0351 573.724 43.2335C574.532 42.4257 575.506 41.7913 576.582 41.3714C577.678 40.94 578.867 40.7239 580.154 40.7239ZM585.261 45.0597V44.1699C585.261 43.5301 585.404 42.9475 585.689 42.4241C585.981 41.8942 586.423 41.4568 586.963 41.1639C587.535 40.8479 588.233 40.689 589.059 40.689C589.916 40.689 590.626 40.8479 591.19 41.1639C591.753 41.4799 592.174 41.8997 592.451 42.4241C592.737 42.9475 592.881 43.5301 592.881 44.1699V45.0597C592.881 45.684 592.737 46.2588 592.451 46.7832C592.174 47.3066 591.753 47.7273 591.19 48.0434C590.634 48.3594 589.935 48.5174 589.095 48.5174C588.253 48.5174 587.547 48.3594 586.975 48.0434C586.433 47.7484 585.988 47.3118 585.689 46.7832C585.402 46.2519 585.255 45.6597 585.261 45.0597ZM587.689 44.1699V45.0597C587.689 45.3146 587.741 45.5531 587.844 45.777C587.947 46 588.103 46.1812 588.308 46.3199C588.515 46.4594 588.772 46.5283 589.083 46.5283C589.4 46.5283 589.658 46.4594 589.856 46.3199C590.055 46.1812 590.202 46 590.296 45.777C590.4 45.5531 590.451 45.3146 590.451 45.0597V44.1699C590.451 43.9072 590.4 43.6648 590.296 43.4409C590.207 43.2161 590.049 43.0229 589.844 42.8865C589.638 42.7478 589.376 42.6781 589.059 42.6781C588.757 42.6781 588.503 42.7478 588.296 42.8865C588.099 43.0251 587.947 43.2102 587.844 43.4409C587.74 43.6705 587.687 43.919 587.689 44.1699ZM593.523 54.5292V53.6393C593.523 53.0073 593.666 52.4286 593.952 51.9052C594.25 51.3764 594.695 50.9397 595.237 50.645C595.809 50.3281 596.512 50.1701 597.345 50.1701C598.193 50.1701 598.9 50.3281 599.464 50.645C600.027 50.9611 600.448 51.3808 600.726 51.9052C601.011 52.4286 601.155 53.0073 601.155 53.6393V54.5292C601.155 55.1612 601.011 55.7399 600.726 56.2643C600.448 56.7878 600.027 57.2084 599.464 57.5245C598.908 57.8405 598.213 57.9985 597.38 57.9985C596.532 57.9985 595.821 57.8405 595.249 57.5245C594.702 57.2321 594.253 56.7951 593.952 56.2643C593.663 55.7292 593.516 55.133 593.523 54.5292ZM595.964 53.6393V54.5292C595.964 54.7919 596.024 55.0342 596.142 55.2581C596.261 55.4811 596.428 55.6624 596.642 55.801C596.857 55.9406 597.098 56.0094 597.368 56.0094C597.741 56.0094 598.024 55.9406 598.213 55.801C598.412 55.6624 598.547 55.4811 598.619 55.2581C598.689 55.0342 598.725 54.7919 598.725 54.5292V53.6393C598.725 53.3767 598.674 53.1343 598.571 52.9104C598.478 52.6902 598.321 52.5013 598.119 52.3676C597.912 52.229 597.654 52.1592 597.345 52.1592C597.035 52.1592 596.777 52.229 596.57 52.3676C596.365 52.5062 596.209 52.6875 596.106 52.9104C596.01 53.1419 595.961 53.3896 595.964 53.6393ZM598.273 43.3488L589.808 56.5066L588.035 55.6168L596.5 42.458L598.273 43.3488Z" fill="#E14B51"/>
<path d="M552.445 8.66857L554.287 0.81207H555.347L555.766 1.78626L553.804 9.79106H552.642L552.445 8.66857ZM551.728 0.81207L553.271 8.70541L553.004 9.79106H551.683L549.677 0.81207H551.728ZM557.081 8.66276L558.605 0.81207H560.649L558.643 9.79106H557.334L557.081 8.66276ZM556.04 0.81207L557.906 8.71122L557.69 9.79106H556.535L554.54 1.78044L554.979 0.81207H556.04ZM563.354 0.81207L564.979 3.87131L566.604 0.81207H568.967L566.338 5.26425L569.037 9.79106H566.655L564.979 6.67658L563.31 9.79106H560.922L563.627 5.26425L560.992 0.81207H563.354ZM573.697 0.81207L570.427 10.5617H568.986L572.256 0.81207H573.697ZM579.64 0.81207H581.711V6.70759C581.711 7.40649 581.558 7.99391 581.252 8.47082C580.952 8.94774 580.534 9.30737 579.996 9.55067C579.458 9.79301 578.836 9.91418 578.129 9.91418C577.418 9.91418 576.791 9.79301 576.25 9.55067C575.726 9.31968 575.285 8.94411 574.979 8.47082C574.675 7.99391 574.522 7.40649 574.522 6.70759V0.81207H576.598V6.70759C576.598 7.09436 576.658 7.41037 576.777 7.65755C576.9 7.89989 577.075 8.07825 577.304 8.1936C577.533 8.30507 577.807 8.36032 578.129 8.36032C578.451 8.36032 578.723 8.30507 578.948 8.1936C579.176 8.07825 579.348 7.89989 579.463 7.65755C579.581 7.41037 579.64 7.09436 579.64 6.70759V0.81207ZM587.984 7.42297C587.984 7.27078 587.96 7.13507 587.914 7.01585C587.86 6.8835 587.772 6.7667 587.659 6.67658C587.5 6.55226 587.326 6.44863 587.139 6.36833C586.853 6.23848 586.558 6.1293 586.256 6.04166C585.853 5.91389 585.456 5.7657 585.069 5.5977C584.715 5.43992 584.38 5.24315 584.072 5.01125C583.79 4.80063 583.554 4.53647 583.38 4.23481C583.209 3.9152 583.124 3.55874 583.133 3.19859C583.133 2.81667 583.219 2.47158 583.392 2.16237C583.566 1.85412 583.809 1.59142 584.123 1.37332C584.457 1.14176 584.831 0.970378 585.228 0.867329C585.651 0.7481 586.116 0.688965 586.624 0.688965C587.302 0.688965 587.897 0.806254 588.409 1.04083C588.925 1.27057 589.327 1.5953 589.615 2.01503C589.903 2.4299 590.047 2.91263 590.047 3.46418H587.99C587.994 3.24058 587.94 3.01955 587.831 2.82249C587.726 2.63028 587.561 2.47498 587.361 2.37853C587.154 2.2719 586.894 2.21859 586.58 2.21859C586.276 2.21859 586.019 2.26317 585.812 2.35429C585.625 2.42784 585.464 2.55203 585.349 2.71198C585.248 2.86005 585.195 3.03378 585.196 3.21119C585.196 3.35465 585.234 3.48648 585.311 3.60571C585.39 3.72106 585.505 3.82963 585.653 3.93238C585.806 4.03125 585.991 4.12624 586.212 4.21639C586.431 4.30654 586.684 4.39282 586.967 4.47521C587.419 4.61037 587.858 4.77955 588.282 4.9812C588.667 5.16635 588.991 5.37573 589.253 5.61031C589.512 5.83631 589.717 6.11443 589.854 6.42531C589.991 6.73619 590.057 7.07235 590.047 7.41037C590.047 7.80974 589.967 8.16257 589.806 8.47082C589.649 8.77907 589.421 9.04274 589.12 9.26084C588.824 9.47409 588.468 9.63694 588.053 9.74745C587.638 9.85892 587.175 9.91418 586.663 9.91418C586.197 9.91418 585.738 9.85698 585.285 9.74163C584.846 9.62851 584.43 9.44504 584.053 9.1988C583.692 8.95961 583.392 8.64327 583.177 8.27405C582.961 7.89601 582.853 7.4472 582.853 6.92958H584.922C584.922 7.20099 584.963 7.43072 585.043 7.61974C585.124 7.80489 585.238 7.95514 585.386 8.07049C585.539 8.18584 585.723 8.26727 585.938 8.3167C586.155 8.36614 586.396 8.39134 586.663 8.39134C586.971 8.39134 587.221 8.34966 587.412 8.26726C587.589 8.19541 587.74 8.07307 587.844 7.91636C587.937 7.76777 587.985 7.59687 587.984 7.42297ZM594.193 9.79106H592.162L592.174 8.23722H594.193C594.655 8.23722 595.044 8.13446 595.361 7.92896C595.679 7.71862 595.92 7.41037 596.085 7.00324C596.251 6.59224 596.333 6.09304 596.333 5.50465V5.09171C596.339 4.69681 596.292 4.30281 596.193 3.91977C596.115 3.61045 595.975 3.31919 595.781 3.06288C595.603 2.83681 595.369 2.6586 595.101 2.54525C594.81 2.42544 594.497 2.36664 594.181 2.37271H592.124V0.81207H594.181C594.806 0.81207 595.378 0.914821 595.894 1.12032C596.415 1.32582 596.865 1.6205 597.241 2.00242C597.622 2.38434 597.916 2.83703 598.123 3.3595C598.331 3.88101 598.435 4.4626 598.435 5.10431V5.50465C598.435 6.14247 598.331 6.72408 598.123 7.25043C597.927 7.75582 597.626 8.21717 597.241 8.60653C596.865 8.98457 596.417 9.27731 595.901 9.48281C595.358 9.69321 594.778 9.79794 594.193 9.79106ZM593.336 0.81207V9.79106H591.266V0.81207H593.336ZM607.324 0.81207V9.79106H605.261L601.768 3.98763V9.79106H599.698V0.81207H601.768L605.266 6.61551V0.81207H607.324Z" fill="white"/>
<path d="M412.677 75.189L471.243 27.2713C472.493 26.248 474.06 25.689 475.676 25.689H578.177" stroke="#E14B51" stroke-width="2"/>
<path d="M27.0224 118.182L24.069 117.5L25.0811 108.932H35.0101V111.788H28.1292L27.713 115.338C27.9266 115.215 28.264 115.08 28.7241 114.933C29.1852 114.778 29.7002 114.702 30.2721 114.702C31.1205 114.702 31.8751 114.829 32.5338 115.084C33.1705 115.323 33.7412 115.703 34.2006 116.194C34.6608 116.671 35.0061 117.261 35.2367 117.963C35.4742 118.663 35.594 119.461 35.594 120.356C35.5967 121.079 35.476 121.798 35.2367 122.483C35.0011 123.15 34.6286 123.763 34.1417 124.287C33.6567 124.811 33.0419 125.227 32.2953 125.535C31.5497 125.844 30.6734 125.998 29.6653 125.998C28.9135 126 28.1662 125.887 27.4505 125.663C26.7554 125.449 26.1031 125.12 25.5222 124.692C24.9641 124.266 24.5055 123.73 24.1768 123.12C23.8514 122.502 23.6847 121.809 23.6768 121.037H27.3907C27.4306 121.485 27.5464 121.87 27.736 122.194C27.9266 122.51 28.1851 122.757 28.5105 122.934C28.8598 123.109 29.2485 123.197 29.6414 123.188C30.0536 123.188 30.4029 123.112 30.6894 122.958C30.9748 122.796 31.2004 122.576 31.3681 122.298C31.5417 122.02 31.6695 121.697 31.7483 121.327C31.8282 120.957 31.8681 120.559 31.8681 120.136C31.8681 119.697 31.8162 119.303 31.7124 118.956C31.6219 118.626 31.4596 118.319 31.2363 118.055C31.0176 117.797 30.7348 117.599 30.4149 117.477C30.0895 117.338 29.6962 117.269 29.2371 117.269C28.6333 117.269 28.1612 117.365 27.8198 117.557C27.5183 117.719 27.248 117.93 27.0214 118.182H27.0224ZM41.356 115.812H43.2483C43.7883 115.812 44.2335 115.72 44.5828 115.534C44.9391 115.349 45.2016 115.088 45.3683 114.748C45.543 114.409 45.6298 114.012 45.6298 113.557C45.6298 113.164 45.5499 112.814 45.3922 112.505C45.2325 112.196 44.9789 111.941 44.6656 111.776C44.3482 111.591 43.935 111.499 43.428 111.499C43.0627 111.499 42.7134 111.572 42.38 111.719C42.0626 111.851 41.787 112.062 41.5815 112.332C41.3759 112.593 41.2721 112.909 41.2721 113.28H37.5462C37.5462 112.339 37.8077 111.526 38.3317 110.84C38.8637 110.154 39.5664 109.626 40.4387 109.256C41.32 108.878 42.2802 108.689 43.3202 108.689C44.5179 108.689 45.5709 108.874 46.4752 109.244C47.3874 109.607 48.0941 110.146 48.5941 110.863C49.1031 111.572 49.3567 112.451 49.3567 113.499C49.3567 114.046 49.2209 114.575 48.9514 115.084C48.6899 115.584 48.3127 116.032 47.8206 116.424C47.3012 116.829 46.7127 117.142 46.0819 117.349C45.4152 117.573 44.6736 117.684 43.8562 117.684H41.356V115.812ZM41.356 118.529V116.691H43.8562C44.7604 116.691 45.5709 116.791 46.2845 116.991C46.9992 117.191 47.606 117.481 48.1061 117.858C48.6061 118.236 48.9874 118.694 49.2489 119.234C49.5114 119.773 49.6421 120.375 49.6421 121.037C49.6421 121.824 49.4824 122.525 49.166 123.142C48.8515 123.755 48.3951 124.29 47.8326 124.703C47.2281 125.143 46.5463 125.472 45.8204 125.675C45.0068 125.896 44.1651 126.005 43.3202 125.998C42.5976 125.998 41.88 125.902 41.1653 125.709C40.4717 125.526 39.8155 125.228 39.225 124.83C38.6492 124.434 38.1729 123.916 37.8317 123.315C37.4824 122.699 37.3077 121.967 37.3077 121.119H41.0346C41.0346 121.512 41.1374 121.866 41.344 122.182C41.5586 122.49 41.848 122.738 42.2123 122.923C42.5856 123.1 42.9908 123.188 43.427 123.188C43.951 123.188 44.3951 123.096 44.7604 122.911C45.1337 122.718 45.4152 122.456 45.6058 122.125C45.8054 121.793 45.9043 121.412 45.9043 120.98C45.9043 120.394 45.7965 119.924 45.5819 119.57C45.3832 119.214 45.0636 118.936 44.6776 118.784C44.2804 118.614 43.8043 118.529 43.2493 118.529H41.356ZM51.8209 113.06V112.17C51.8209 111.53 51.9637 110.948 52.2501 110.424C52.5412 109.894 52.9829 109.456 53.5227 109.163C54.0946 108.847 54.7933 108.689 55.6187 108.689C56.476 108.689 57.1857 108.847 57.7496 109.163C58.3125 109.479 58.7337 109.9 59.0112 110.424C59.2976 110.948 59.4404 111.53 59.4404 112.17V113.06C59.4404 113.684 59.2967 114.259 59.0112 114.782C58.7337 115.307 58.3125 115.727 57.7496 116.043C57.1937 116.359 56.495 116.517 55.6536 116.517C54.8132 116.517 54.1066 116.359 53.5347 116.043C52.9928 115.748 52.5473 115.311 52.2491 114.782C51.9614 114.251 51.8139 113.66 51.8199 113.06H51.8209ZM54.2493 112.17V113.06C54.2493 113.315 54.3012 113.553 54.404 113.777C54.5068 114 54.6615 114.181 54.8681 114.32C55.0747 114.458 55.3322 114.528 55.6426 114.528C55.96 114.528 56.2175 114.458 56.4162 114.32C56.6128 114.183 56.7655 113.995 56.8563 113.777C56.9601 113.553 57.011 113.315 57.011 113.06V112.17C57.011 111.907 56.9601 111.665 56.8563 111.441C56.7662 111.216 56.6087 111.023 56.4042 110.886C56.1976 110.748 55.9351 110.678 55.6187 110.678C55.3173 110.678 55.0627 110.748 54.8561 110.886C54.6585 111.025 54.5068 111.21 54.404 111.441C54.2996 111.67 54.2468 111.919 54.2493 112.17ZM60.0831 122.529V121.639C60.0831 121.007 60.2259 120.429 60.5123 119.905C60.8103 119.376 61.2554 118.939 61.7969 118.644C62.3688 118.328 63.0714 118.17 63.9048 118.17C64.7532 118.17 65.4599 118.328 66.0238 118.644C66.5867 118.96 67.0079 119.381 67.2854 119.905C67.5708 120.429 67.7146 121.007 67.7146 121.639V122.529C67.7146 123.161 67.5708 123.74 67.2854 124.263C67.0079 124.788 66.5867 125.208 66.0238 125.524C65.4679 125.84 64.7732 125.998 63.9398 125.998C63.0914 125.998 62.3808 125.84 61.8088 125.524C61.2619 125.232 60.8119 124.795 60.5113 124.263C60.2227 123.729 60.0752 123.133 60.0821 122.529H60.0831ZM62.5235 121.639V122.529C62.5235 122.792 62.5834 123.034 62.7021 123.258C62.8219 123.481 62.9876 123.662 63.2012 123.801C63.4168 123.94 63.6583 124.009 63.9278 124.009C64.3011 124.009 64.5835 123.94 64.7732 123.801C64.9728 123.662 65.1065 123.481 65.1784 123.258C65.2503 123.034 65.2852 122.792 65.2852 122.529V121.639C65.2852 121.377 65.2343 121.134 65.1305 120.91C65.0379 120.69 64.8807 120.501 64.6784 120.368C64.4718 120.229 64.2142 120.159 63.9048 120.159C63.5954 120.159 63.3369 120.229 63.1303 120.368C62.9237 120.506 62.769 120.687 62.6662 120.91C62.5695 121.142 62.5209 121.39 62.5235 121.639ZM64.8331 111.349L56.3692 124.507L54.5946 123.616L63.0585 110.458L64.8331 111.349Z" fill="#5A81EA"/>
<path d="M3.44546 71.6686L5.28694 63.8121H6.34692L6.76611 64.7863L4.80387 72.7911H3.64309L3.44646 71.6686H3.44546ZM2.72684 63.8121L4.27089 71.7054L4.0044 72.7911H2.68292L0.676758 63.8121H2.72784H2.72684ZM8.0806 71.6618L9.60469 63.8121H11.6488L9.64261 72.7911H8.33412L8.0796 71.6618H8.0806ZM7.03859 63.8121L8.90502 71.7112L8.68944 72.7911H7.53564L5.54146 64.7804L5.98062 63.8121H7.03959H7.03859ZM16.1631 65.5201L13.7757 72.7911H11.5659L14.9894 63.8121H16.3857L16.1631 65.5201ZM18.1444 72.7911L15.7509 65.5201L15.5034 63.8121H16.9187L20.3541 72.7911H18.1444ZM18.0426 69.4488V71.0026H13.2248V69.4488H18.0436H18.0426ZM24.0311 70.7991L26.0872 63.8121H28.3928L25.2238 72.7911H23.7187L24.0301 70.7991H24.0311ZM22.1567 63.8121L24.2078 70.7991L24.5321 72.7911H23.0081L19.8591 63.8121H22.1567ZM35.4463 71.2363V72.7911H30.5257V71.2363H35.4463ZM31.2303 63.8121V72.7911H29.1603V63.8121H31.2303ZM34.8115 67.4258V68.9302H30.5257V67.4258H34.8115ZM35.4533 63.8121V65.3727H30.5257V63.8121H35.4533ZM41.2562 70.423C41.2585 70.2843 41.2348 70.1463 41.1863 70.0159C41.1331 69.8835 41.0458 69.7667 40.9328 69.6766C40.7738 69.5521 40.5986 69.4484 40.4118 69.3683C40.1264 69.2385 39.8315 69.1293 39.5295 69.0417C39.1258 68.9139 38.7294 68.7657 38.3417 68.5977C37.9875 68.4397 37.653 68.2429 37.3446 68.0113C37.0626 67.8003 36.8273 67.5362 36.653 67.2348C36.4822 66.9151 36.3971 66.5587 36.4054 66.1986C36.4054 65.8167 36.4923 65.4706 36.6649 65.1624C36.8396 64.8541 37.0831 64.5914 37.3955 64.3733C37.7296 64.1417 38.1039 63.9703 38.5004 63.8673C38.9236 63.7481 39.3887 63.689 39.8978 63.689C40.5745 63.689 41.1693 63.8063 41.6814 64.0399C42.1984 64.2706 42.5996 64.5953 42.889 65.015C43.1765 65.4299 43.3202 65.9126 43.3202 66.4642H41.2632C41.2677 66.2405 41.2127 66.0195 41.1035 65.8225C40.9989 65.6304 40.8348 65.4751 40.6344 65.3785C40.4268 65.2719 40.1663 65.2186 39.8529 65.2186C39.5484 65.2186 39.2919 65.2632 39.0843 65.3543C38.898 65.4278 38.7373 65.5516 38.6212 65.711C38.5207 65.8595 38.4675 66.0335 38.4685 66.2112C38.4685 66.3547 38.5074 66.4865 38.5833 66.6057C38.6631 66.7211 38.7779 66.8296 38.9256 66.9324C39.0783 67.0313 39.265 67.1253 39.4846 67.2164C39.7041 67.3065 39.9567 67.3928 40.2401 67.4752C40.7352 67.6274 41.1733 67.7961 41.5546 67.9812C41.9399 68.1654 42.2632 68.3757 42.5267 68.6093C42.7882 68.8439 42.9859 69.1095 43.1166 69.4052C43.2524 69.7008 43.3202 70.0362 43.3202 70.4104C43.3202 70.8088 43.2404 71.1626 43.0787 71.4708C42.922 71.7791 42.6934 72.0427 42.393 72.2608C42.0966 72.4741 41.7412 72.6369 41.326 72.7474C40.9108 72.8589 40.4477 72.9142 39.9357 72.9142C39.4696 72.9142 39.0105 72.856 38.5583 72.7416C38.1192 72.6286 37.7026 72.4451 37.3257 72.1988C36.9647 71.9596 36.6649 71.6433 36.4494 71.2741C36.2338 70.895 36.126 70.4472 36.126 69.9296H38.196C38.196 70.201 38.2359 70.4307 38.3158 70.6198C38.3966 70.8049 38.5114 70.9551 38.6591 71.0705C38.8118 71.1849 38.9955 71.2673 39.2121 71.3167C39.4277 71.3661 39.6692 71.3913 39.9357 71.3913C40.2451 71.3913 40.4946 71.3497 40.6843 71.2673C40.8615 71.1954 41.0122 71.0731 41.1164 70.9164C41.2096 70.7678 41.258 70.5969 41.2562 70.423ZM48.3546 63.8121L45.0849 73.5617H43.6436L46.9133 63.8121H48.3546ZM54.2982 63.8121H56.3683V69.7076C56.3683 70.4065 56.2156 70.9939 55.9111 71.4708C55.6107 71.9477 55.1915 72.3074 54.6536 72.5507C54.1156 72.793 53.4938 72.9142 52.7871 72.9142C52.0755 72.9142 51.4497 72.793 50.9077 72.5507C50.3842 72.3198 49.9422 71.9442 49.6371 71.4708C49.3327 70.9939 49.18 70.4065 49.18 69.7076V63.8121H51.2561V69.7076C51.2561 70.0934 51.3159 70.4104 51.4347 70.6566C51.5575 70.8999 51.7331 71.0782 51.9617 71.1936C52.1903 71.3041 52.4657 71.3603 52.7871 71.3603C53.1085 71.3603 53.382 71.3041 53.6056 71.1936C53.8351 71.0782 54.0058 70.8999 54.1206 70.6566C54.2393 70.4104 54.2982 70.0934 54.2982 69.7076V63.8121ZM62.6413 70.423C62.6436 70.2843 62.6199 70.1463 62.5714 70.0159C62.5182 69.8835 62.4309 69.7667 62.3179 69.6766C62.1589 69.5521 61.9837 69.4484 61.7969 69.3683C61.5115 69.2385 61.2166 69.1293 60.9146 69.0417C60.511 68.9139 60.1145 68.7657 59.7269 68.5977C59.3726 68.4397 59.0381 68.2429 58.7298 68.0113C58.4477 67.8003 58.2124 67.5362 58.0381 67.2348C57.8673 66.9151 57.7822 66.5587 57.7906 66.1986C57.7906 65.8167 57.8774 65.4706 58.0501 65.1624C58.2247 64.8541 58.4673 64.5914 58.7807 64.3733C59.1147 64.1417 59.489 63.9703 59.8855 63.8673C60.3087 63.7481 60.7739 63.689 61.2829 63.689C61.9596 63.689 62.5544 63.8063 63.0665 64.0399C63.5835 64.2706 63.9847 64.5953 64.2732 65.015C64.5606 65.4299 64.7053 65.9126 64.7053 66.4642H62.6473C62.6521 66.2406 62.5975 66.0196 62.4886 65.8225C62.384 65.6304 62.2199 65.4751 62.0195 65.3785C61.8119 65.2719 61.5514 65.2186 61.238 65.2186C60.9335 65.2186 60.677 65.2632 60.4694 65.3543C60.2831 65.4278 60.1224 65.5516 60.0063 65.711C59.9058 65.8595 59.8526 66.0335 59.8536 66.2112C59.8536 66.3547 59.8915 66.4865 59.9684 66.6057C60.0482 66.7211 60.163 66.8296 60.3107 66.9324C60.4634 67.0313 60.6501 67.1253 60.8697 67.2164C61.0892 67.3065 61.3418 67.3928 61.6252 67.4752C62.1203 67.6274 62.5584 67.7961 62.9397 67.9812C63.325 68.1654 63.6484 68.3757 63.9109 68.6093C64.1734 68.8439 64.37 69.1095 64.5017 69.4052C64.6375 69.7008 64.7053 70.0362 64.7053 70.4104C64.7053 70.8088 64.6245 71.1626 64.4638 71.4708C64.3071 71.7791 64.0785 72.0427 63.7781 72.2608C63.4817 72.4741 63.1264 72.6369 62.7111 72.7474C62.2959 72.8589 61.8328 72.9142 61.3208 72.9142C60.8547 72.9142 60.3956 72.856 59.9434 72.7416C59.5043 72.6286 59.0877 72.4451 58.7108 72.1988C58.3497 71.9597 58.0499 71.6433 57.8345 71.2741C57.6189 70.895 57.5111 70.4472 57.5111 69.9296H59.5811C59.5811 70.201 59.6211 70.4307 59.7009 70.6198C59.7817 70.8049 59.8965 70.9551 60.0442 71.0705C60.197 71.1849 60.3806 71.2673 60.5972 71.3167C60.8128 71.3661 61.0543 71.3913 61.3208 71.3913C61.6302 71.3913 61.8797 71.3497 62.0694 71.2673C62.2466 71.1954 62.3973 71.0731 62.5015 70.9164C62.5947 70.7678 62.6431 70.5969 62.6413 70.423ZM68.8514 72.7911H66.8193L66.8323 71.2363H68.8514C69.3125 71.2363 69.7018 71.1335 70.0192 70.928C70.3366 70.7186 70.5781 70.4104 70.7428 70.0033C70.9085 69.5923 70.9913 69.093 70.9913 68.5046V68.0917C70.9973 67.6968 70.9504 67.3029 70.8516 66.9198C70.7737 66.6104 70.6332 66.3191 70.4384 66.0629C70.2616 65.8366 70.0279 65.6584 69.7597 65.5453C69.4685 65.4253 69.1546 65.3665 68.8384 65.3727H66.7814V63.8121H68.8384C69.4652 63.8121 70.0361 63.9148 70.5532 64.1203C71.0613 64.3177 71.5201 64.6185 71.8986 65.0024C72.2799 65.3844 72.5743 65.837 72.7819 66.3585C72.9956 66.9168 73.1008 67.5088 73.0923 68.1043V68.5046C73.1002 69.1002 72.9949 69.692 72.7819 70.2504C72.585 70.7559 72.2845 71.2172 71.8986 71.6065C71.5223 71.9846 71.0752 72.2764 70.5591 72.4828C70.0162 72.6932 69.4359 72.7979 68.8514 72.7911ZM67.993 63.8121V72.7911H65.924V63.8121H67.994H67.993ZM81.9813 63.8121V72.7911H79.9182L76.4259 66.9876V72.7911H74.3559V63.8121H76.4259L79.9242 69.6145V63.8121H81.9813Z" fill="white"/>
<circle cx="41.1768" cy="91.189" r="4.5" fill="#5A81EA"/>
<circle cx="578.177" cy="26.189" r="4.5" fill="#E14B51"/>
</svg>
