<svg width="303" height="284" viewBox="0 0 303 284" fill="none" xmlns="http://www.w3.org/2000/svg">
<path d="M151.999 32.5195C175.707 32.5188 198.526 41.2839 215.82 57.034C233.114 72.7841 243.585 94.3377 245.106 117.315C246.626 140.293 239.083 162.971 224.008 180.742C208.932 198.513 187.457 210.043 163.943 212.99L158.009 168.339C169.838 166.856 180.643 161.055 188.227 152.114C195.811 143.173 199.607 131.764 198.842 120.203C198.076 108.643 192.808 97.7998 184.107 89.8758C175.407 81.9518 163.927 77.5417 151.999 77.5412V32.5195Z" fill="#E14B51"/>
<path d="M164.308 212.944C145.203 215.414 125.779 212.076 108.706 203.39C91.6327 194.704 77.7488 181.096 68.9625 164.435C63.1305 153.377 59.7023 141.273 58.891 128.874C58.0796 116.475 59.9025 104.046 64.2463 92.36C68.5899 80.674 75.3618 69.9804 84.1412 60.944C92.9206 51.9075 103.52 44.7212 115.28 39.8318C127.04 34.9421 139.71 32.4536 152.503 32.5209L152.252 77.5415C145.816 77.508 139.442 78.7601 133.525 81.2202C127.608 83.6803 122.276 87.2957 117.858 91.8419C113.442 96.3886 110.035 101.769 107.849 107.648C105.664 113.527 104.747 119.78 105.154 126.018C105.562 132.257 107.287 138.347 110.221 143.91C113.155 149.474 117.236 154.392 122.21 158.359C127.185 162.326 132.946 165.257 139.136 166.97C145.326 168.682 151.812 169.141 158.192 168.316L164.308 212.944Z" fill="#5A81EA"/>
<path d="M164.309 212.944C151.628 214.583 138.736 213.672 126.433 210.267C114.13 206.863 102.679 201.037 92.793 193.152C82.9061 185.268 74.7946 175.493 68.9625 164.435C63.1304 153.378 59.7023 141.273 58.8914 128.874C58.0802 116.475 59.9032 104.046 64.2472 92.3602C68.5911 80.6744 75.3632 69.9811 84.1426 60.9447C92.9219 51.9083 103.521 44.7219 115.281 39.8322C127.041 34.9424 139.711 32.4538 152.504 32.5209L152.253 77.5415C145.817 77.5078 139.442 78.7598 133.525 81.2197C127.608 83.6798 122.276 87.2953 117.859 91.8417C113.442 96.3881 110.034 101.768 107.849 107.648C105.663 113.527 104.746 119.78 105.155 126.018C105.563 132.257 107.288 138.347 110.222 143.91C114.643 152.292 121.628 159.139 130.218 163.509C138.807 167.879 148.58 169.558 158.192 168.316L164.309 212.944Z" fill="#5A81EA"/>
<path d="M152 32.5195C169.673 32.5193 186.982 37.3945 201.913 46.5773C216.845 55.7602 228.783 68.8731 236.339 84.3895C243.895 99.9057 246.757 117.187 244.593 134.222C242.43 151.257 235.328 167.345 224.115 180.612L188.282 152.049C193.924 145.374 197.497 137.28 198.586 128.71C199.675 120.139 198.235 111.444 194.433 103.638C190.631 95.831 184.625 89.2336 177.113 84.6136C169.6 79.9936 160.891 77.5409 152 77.5412V32.5195Z" fill="#E14B51"/>
<path d="M181.88 208.963C176.101 210.861 170.144 212.203 164.095 212.971L158.085 168.33C161.128 167.943 164.125 167.268 167.032 166.313L181.88 208.963Z" fill="#F0A4A7"/>
<path d="M197.716 202.112C192.297 205.071 186.586 207.496 180.669 209.352L166.424 166.509C169.401 165.575 172.274 164.355 175 162.866L197.716 202.112Z" fill="#E88689"/>
<path d="M224.348 180.335C216.878 189.246 207.731 196.696 197.394 202.287L174.838 162.954C180.039 160.141 184.641 156.393 188.399 151.91L224.348 180.335Z" fill="#E46B6F"/>
<path d="M121.408 79.4458L82.335 26.8699C81.6299 25.9211 80.5174 25.3618 79.3353 25.3618H38.7676" stroke="#5A81EA" stroke-width="1.06784"/>
<path d="M240.753 278.212H241.764C242.052 278.212 242.29 278.163 242.476 278.064C242.666 277.965 242.807 277.825 242.896 277.644C242.989 277.463 243.035 277.252 243.035 277.008C243.035 276.799 242.993 276.611 242.908 276.447C242.823 276.282 242.688 276.146 242.52 276.058C242.351 275.959 242.13 275.91 241.859 275.91C241.666 275.909 241.475 275.949 241.3 276.027C241.131 276.098 240.984 276.21 240.874 276.354C240.762 276.5 240.703 276.678 240.708 276.86H238.719C238.719 276.358 238.859 275.924 239.139 275.558C239.423 275.192 239.798 274.91 240.264 274.712C240.734 274.511 241.247 274.41 241.802 274.41C242.442 274.41 243.003 274.509 243.486 274.706C243.974 274.899 244.351 275.188 244.618 275.57C244.889 275.949 245.025 276.418 245.025 276.978C245.025 277.27 244.953 277.552 244.809 277.823C244.669 278.091 244.468 278.33 244.205 278.54C243.927 278.755 243.613 278.922 243.277 279.033C242.921 279.152 242.525 279.213 242.088 279.213H240.753V278.212ZM240.753 279.663V278.682H242.088C242.571 278.682 243.003 278.735 243.385 278.842C243.766 278.949 244.09 279.103 244.357 279.305C244.624 279.506 244.828 279.751 244.967 280.04C245.108 280.328 245.177 280.649 245.177 281.003C245.177 281.422 245.093 281.797 244.923 282.126C244.755 282.454 244.512 282.739 244.211 282.96C243.888 283.194 243.524 283.37 243.137 283.478C242.703 283.597 242.253 283.655 241.802 283.651C241.413 283.651 241.026 283.599 240.651 283.497C240.281 283.399 239.931 283.24 239.615 283.027C239.308 282.816 239.054 282.539 238.872 282.219C238.685 281.89 238.592 281.499 238.592 281.046H240.582C240.582 281.256 240.637 281.445 240.747 281.614C240.861 281.779 241.016 281.91 241.211 282.009C241.41 282.104 241.626 282.151 241.859 282.151C242.139 282.151 242.376 282.101 242.571 282.003C242.77 281.9 242.921 281.76 243.022 281.583C243.128 281.406 243.181 281.203 243.181 280.972C243.181 280.659 243.124 280.408 243.01 280.219C242.904 280.029 242.733 279.88 242.527 279.799C242.315 279.708 242.06 279.663 241.764 279.663H240.753ZM246.341 276.743V276.268C246.341 275.926 246.417 275.616 246.569 275.336C246.725 275.053 246.961 274.819 247.249 274.663C247.555 274.494 247.928 274.41 248.368 274.41C248.826 274.41 249.205 274.494 249.506 274.663C249.807 274.831 250.032 275.056 250.18 275.336C250.332 275.616 250.409 275.926 250.409 276.268V276.743C250.409 277.077 250.332 277.383 250.18 277.663C250.032 277.943 249.807 278.167 249.506 278.336C249.209 278.505 248.836 278.589 248.387 278.589C247.938 278.589 247.561 278.505 247.256 278.336C246.966 278.178 246.729 277.945 246.569 277.663C246.416 277.38 246.337 277.064 246.341 276.743ZM247.637 276.268V276.743C247.637 276.879 247.665 277.006 247.72 277.126C247.775 277.245 247.857 277.342 247.968 277.416C248.078 277.49 248.215 277.527 248.381 277.527C248.551 277.527 248.688 277.49 248.794 277.416C248.9 277.342 248.979 277.245 249.029 277.126C249.085 277.006 249.112 276.879 249.112 276.743V276.268C249.112 276.128 249.085 275.998 249.029 275.879C248.981 275.759 248.897 275.655 248.788 275.582C248.677 275.508 248.538 275.471 248.368 275.471C248.207 275.471 248.072 275.508 247.961 275.582C247.856 275.656 247.775 275.755 247.72 275.879C247.665 275.998 247.637 276.128 247.637 276.268ZM250.752 281.799V281.324C250.752 280.986 250.828 280.678 250.981 280.398C251.14 280.115 251.378 279.882 251.667 279.725C251.972 279.556 252.348 279.472 252.793 279.472C253.246 279.472 253.623 279.556 253.924 279.725C254.224 279.894 254.449 280.118 254.597 280.398C254.75 280.678 254.827 280.986 254.827 281.324V281.799C254.827 282.137 254.75 282.445 254.597 282.725C254.449 283.005 254.224 283.229 253.924 283.398C253.627 283.567 253.256 283.651 252.811 283.651C252.358 283.651 251.979 283.567 251.673 283.398C251.381 283.242 251.141 283.009 250.981 282.725C250.827 282.44 250.748 282.121 250.752 281.799ZM252.055 281.324V281.799C252.055 281.939 252.087 282.068 252.15 282.188C252.214 282.307 252.303 282.404 252.417 282.478C252.532 282.552 252.661 282.589 252.805 282.589C253.004 282.589 253.155 282.552 253.256 282.478C253.362 282.404 253.434 282.307 253.473 282.188C253.51 282.068 253.53 281.939 253.53 281.799V281.324C253.53 281.184 253.502 281.054 253.447 280.935C253.398 280.817 253.314 280.716 253.206 280.645C253.095 280.571 252.958 280.533 252.793 280.533C252.627 280.533 252.489 280.571 252.379 280.645C252.269 280.719 252.186 280.815 252.131 280.935C252.08 281.058 252.054 281.19 252.055 281.324ZM253.288 275.829L248.769 282.855L247.822 282.379L252.341 275.354L253.288 275.829Z" fill="#EB787C"/>
<path d="M31.7742 259.212H32.7851C33.0729 259.212 33.3106 259.163 33.4971 259.064C33.6873 258.965 33.8275 258.825 33.9165 258.644C34.0097 258.463 34.0561 258.252 34.0561 258.008C34.0561 257.799 34.014 257.611 33.9293 257.447C33.8441 257.282 33.7086 257.146 33.5413 257.058C33.3718 256.959 33.1518 256.91 32.8805 256.91C32.6855 256.91 32.499 256.949 32.321 257.027C32.1518 257.098 32.0049 257.211 31.8952 257.354C31.7849 257.494 31.73 257.663 31.73 257.86H29.7401C29.7401 257.358 29.8803 256.924 30.1595 256.558C30.4436 256.192 30.8187 255.91 31.285 255.712C31.755 255.511 32.2682 255.41 32.823 255.41C33.463 255.41 34.0247 255.509 34.5075 255.706C34.9951 255.899 35.3718 256.188 35.6388 256.57C35.91 256.949 36.0459 257.418 36.0459 257.978C36.0453 258.272 35.9711 258.563 35.8296 258.823C35.69 259.091 35.4885 259.33 35.2258 259.54C34.9483 259.755 34.6344 259.922 34.298 260.033C33.942 260.152 33.5456 260.213 33.1091 260.213H31.7742V259.212ZM31.7742 260.663V259.682H33.1091C33.5925 259.682 34.0246 259.735 34.4057 259.842C34.7872 259.949 35.1112 260.103 35.3782 260.305C35.6452 260.506 35.8488 260.751 35.9884 261.04C36.1285 261.328 36.1984 261.649 36.1984 262.003C36.1984 262.422 36.1136 262.797 35.9442 263.126C35.7763 263.454 35.5326 263.739 35.2322 263.96C34.9094 264.194 34.5454 264.37 34.1579 264.478C33.7235 264.597 33.2741 264.655 32.823 264.651C32.434 264.651 32.0469 264.599 31.6724 264.497C31.3021 264.399 30.9517 264.24 30.6365 264.027C30.3291 263.816 30.0748 263.539 29.8925 263.219C29.7065 262.89 29.6133 262.499 29.6133 262.046H31.6026C31.6026 262.256 31.6575 262.445 31.7678 262.614C31.8824 262.779 32.0369 262.91 32.232 263.009C32.434 263.104 32.656 263.153 32.8805 263.151C33.1597 263.151 33.3974 263.101 33.5925 263.003C33.7912 262.9 33.9421 262.76 34.0433 262.583C34.1493 262.406 34.2026 262.203 34.2026 261.972C34.2026 261.659 34.1451 261.408 34.031 261.219C33.9248 261.029 33.754 260.88 33.5477 260.799C33.3356 260.708 33.0814 260.663 32.7851 260.663H31.7742ZM37.3617 257.743V257.268C37.3617 256.926 37.4379 256.616 37.5903 256.336C37.7461 256.053 37.9823 255.819 38.2708 255.663C38.5756 255.494 38.9487 255.41 39.3894 255.41C39.8471 255.41 40.226 255.494 40.5271 255.663C40.8282 255.831 41.0526 256.056 41.2007 256.336C41.3536 256.616 41.4298 256.926 41.4298 257.268V257.743C41.4298 258.077 41.3536 258.383 41.2007 258.663C41.049 258.947 40.8147 259.181 40.5271 259.336C40.2303 259.505 39.8578 259.589 39.4086 259.589C38.9593 259.589 38.582 259.505 38.2767 259.336C37.9874 259.178 37.7496 258.945 37.5903 258.663C37.437 258.38 37.3584 258.064 37.3617 257.743ZM38.6582 257.268V257.743C38.6582 257.879 38.6859 258.006 38.7408 258.126C38.7963 258.245 38.8788 258.342 38.9886 258.416C39.0989 258.49 39.237 258.527 39.4022 258.527C39.5716 258.527 39.7091 258.49 39.8152 258.416C39.9212 258.342 39.9995 258.245 40.0502 258.126C40.1056 258.006 40.1328 257.879 40.1328 257.743V257.268C40.1328 257.128 40.1056 256.998 40.0502 256.879C40.0024 256.759 39.9182 256.655 39.8088 256.582C39.6985 256.508 39.5588 256.471 39.3894 256.471C39.2284 256.471 39.0925 256.508 38.9822 256.582C38.8754 256.658 38.7919 256.761 38.7408 256.879C38.6859 256.998 38.6582 257.128 38.6582 257.268ZM41.773 262.799V262.324C41.773 261.986 41.8492 261.678 42.0016 261.398C42.1612 261.115 42.3992 260.882 42.6886 260.725C42.9934 260.556 43.3685 260.472 43.8135 260.472C44.267 260.472 44.6438 260.556 44.9449 260.725C45.246 260.894 45.4703 261.118 45.6185 261.398C45.7714 261.678 45.8476 261.986 45.8476 262.324V262.799C45.8476 263.137 45.7714 263.445 45.6185 263.725C45.4668 264.009 45.2325 264.243 44.9449 264.398C44.648 264.567 44.2777 264.651 43.8327 264.651C43.3792 264.651 42.9998 264.567 42.6944 264.398C42.4026 264.242 42.1624 264.009 42.0016 263.725C41.8478 263.44 41.7693 263.121 41.773 262.799ZM43.076 262.324V262.799C43.076 262.939 43.108 263.068 43.1714 263.188C43.2348 263.307 43.3238 263.404 43.4384 263.478C43.5529 263.552 43.6819 263.589 43.8263 263.589C44.0251 263.589 44.1759 263.552 44.2777 263.478C44.3832 263.404 44.4557 263.307 44.4935 263.188C44.5327 263.062 44.5519 262.931 44.5505 262.799V262.324C44.5505 262.184 44.5233 262.054 44.4679 261.935C44.4187 261.817 44.3347 261.716 44.2265 261.645C44.1162 261.571 43.9787 261.533 43.8135 261.533C43.6483 261.533 43.5103 261.571 43.4 261.645C43.2913 261.717 43.2056 261.818 43.1522 261.935C43.1006 262.058 43.0747 262.19 43.076 262.324ZM44.3091 256.829L39.7896 263.855L38.8426 263.379L43.3622 256.354L44.3091 256.829Z" fill="#F0A4A7"/>
<path d="M201.752 183.598L224.422 205.758C225.12 206.441 226.058 206.823 227.035 206.823H268.759" stroke="#E46B6F" stroke-width="1.06784"/>
<path d="M183.905 199.882L206.255 263.703C206.779 265.202 208.194 266.206 209.782 266.206H244.199" stroke="#E88689" stroke-width="1.06784"/>
<path d="M162.179 188.669L174.257 243.392C174.772 245.724 172.996 247.935 170.607 247.935H35.6112" stroke="#F0A4A7" stroke-width="1.06784"/>
<circle cx="268.759" cy="206.556" r="2.40264" fill="#E46B6F"/>
<circle cx="244.199" cy="266.401" r="2.40264" fill="#E88689"/>
<circle cx="36.1253" cy="248.202" r="2.40264" fill="#F0A4A7"/>
<path d="M242.761 192.231H240.387L240.374 190.923H242.367C242.718 190.923 243.006 190.879 243.23 190.79C243.455 190.697 243.622 190.564 243.732 190.39C243.846 190.212 243.903 189.997 243.903 189.743C243.903 189.455 243.848 189.222 243.738 189.044C243.632 188.867 243.465 188.738 243.237 188.657C243.013 188.577 242.723 188.537 242.367 188.537H241.047V196.287H239.143V187.045H242.367C242.905 187.045 243.385 187.096 243.808 187.197C244.236 187.299 244.597 187.453 244.894 187.661C245.19 187.868 245.416 188.13 245.573 188.448C245.729 188.761 245.808 189.133 245.808 189.565C245.808 189.946 245.721 190.297 245.547 190.619C245.378 190.94 245.109 191.203 244.741 191.406C244.377 191.609 243.901 191.721 243.313 191.742L242.761 192.231ZM242.678 196.287H239.866L240.609 194.802H242.678C243.013 194.802 243.285 194.749 243.497 194.643C243.709 194.533 243.865 194.385 243.967 194.199C244.068 194.013 244.119 193.799 244.119 193.558C244.119 193.287 244.073 193.052 243.979 192.853C243.891 192.654 243.747 192.502 243.548 192.396C243.349 192.286 243.087 192.231 242.761 192.231H240.926L240.939 190.923H243.224L243.662 191.438C244.225 191.429 244.678 191.528 245.021 191.736C245.368 191.939 245.619 192.203 245.776 192.529C245.937 192.855 246.017 193.204 246.017 193.577C246.017 194.169 245.888 194.668 245.63 195.075C245.372 195.477 244.993 195.779 244.494 195.982C243.999 196.186 243.393 196.287 242.678 196.287ZM251.4 187.045V196.287H249.502V187.045H251.4ZM254.244 187.045V188.537H246.703V187.045H254.244ZM260.509 193.221H262.407C262.369 193.843 262.197 194.396 261.893 194.878C261.592 195.36 261.171 195.737 260.629 196.008C260.092 196.279 259.444 196.414 258.687 196.414C258.095 196.414 257.563 196.312 257.094 196.109C256.624 195.902 256.222 195.606 255.888 195.221C255.558 194.836 255.306 194.37 255.132 193.824C254.959 193.278 254.872 192.667 254.872 191.99V191.349C254.872 190.672 254.961 190.06 255.139 189.514C255.321 188.964 255.579 188.496 255.913 188.111C256.252 187.726 256.656 187.43 257.125 187.223C257.595 187.015 258.12 186.912 258.7 186.912C259.47 186.912 260.119 187.051 260.648 187.331C261.182 187.61 261.594 187.995 261.886 188.486C262.182 188.977 262.36 189.535 262.419 190.162H260.515C260.494 189.789 260.42 189.474 260.293 189.216C260.166 188.953 259.973 188.757 259.715 188.625C259.461 188.49 259.123 188.422 258.7 188.422C258.382 188.422 258.105 188.482 257.868 188.6C257.631 188.719 257.432 188.898 257.271 189.14C257.111 189.381 256.99 189.686 256.91 190.054C256.833 190.418 256.795 190.845 256.795 191.336V191.99C256.795 192.468 256.831 192.889 256.903 193.253C256.975 193.613 257.085 193.917 257.233 194.167C257.386 194.412 257.58 194.599 257.817 194.726C258.059 194.848 258.348 194.91 258.687 194.91C259.085 194.91 259.413 194.846 259.671 194.719C259.929 194.592 260.126 194.404 260.261 194.154C260.401 193.905 260.483 193.594 260.509 193.221ZM267.491 187.045L264.102 197.081H262.743L266.133 187.045H267.491ZM273.585 187.045H275.483V193.151C275.483 193.862 275.331 194.461 275.026 194.948C274.725 195.434 274.309 195.8 273.775 196.046C273.246 196.291 272.637 196.414 271.947 196.414C271.257 196.414 270.644 196.291 270.106 196.046C269.573 195.8 269.154 195.434 268.85 194.948C268.549 194.461 268.399 193.862 268.399 193.151V187.045H270.303V193.151C270.303 193.566 270.369 193.905 270.5 194.167C270.631 194.429 270.819 194.622 271.065 194.745C271.315 194.867 271.609 194.929 271.947 194.929C272.294 194.929 272.588 194.867 272.83 194.745C273.075 194.622 273.261 194.429 273.388 194.167C273.519 193.905 273.585 193.566 273.585 193.151V187.045ZM281.862 193.869C281.862 193.704 281.837 193.556 281.786 193.424C281.74 193.289 281.651 193.166 281.52 193.056C281.388 192.942 281.204 192.83 280.967 192.72C280.73 192.61 280.424 192.495 280.047 192.377C279.628 192.242 279.23 192.089 278.854 191.92C278.481 191.751 278.151 191.554 277.863 191.33C277.58 191.101 277.355 190.837 277.19 190.536C277.03 190.236 276.949 189.887 276.949 189.489C276.949 189.104 277.034 188.755 277.203 188.441C277.372 188.124 277.609 187.853 277.914 187.629C278.219 187.4 278.578 187.225 278.993 187.102C279.412 186.979 279.871 186.918 280.371 186.918C281.052 186.918 281.646 187.041 282.154 187.286C282.662 187.532 283.056 187.868 283.335 188.295C283.618 188.723 283.76 189.212 283.76 189.762H281.869C281.869 189.491 281.812 189.254 281.697 189.051C281.587 188.843 281.418 188.681 281.189 188.562C280.965 188.444 280.682 188.384 280.339 188.384C280.009 188.384 279.734 188.435 279.514 188.537C279.294 188.634 279.129 188.767 279.019 188.937C278.909 189.102 278.854 189.288 278.854 189.495C278.854 189.652 278.892 189.793 278.968 189.92C279.048 190.047 279.167 190.166 279.323 190.276C279.48 190.386 279.672 190.49 279.901 190.587C280.129 190.684 280.394 190.779 280.694 190.873C281.198 191.025 281.64 191.196 282.021 191.387C282.406 191.577 282.728 191.791 282.986 192.028C283.244 192.265 283.439 192.534 283.57 192.834C283.701 193.134 283.767 193.475 283.767 193.856C283.767 194.258 283.688 194.618 283.532 194.935C283.375 195.252 283.149 195.521 282.853 195.741C282.556 195.961 282.203 196.128 281.792 196.243C281.382 196.357 280.923 196.414 280.415 196.414C279.958 196.414 279.507 196.355 279.063 196.236C278.619 196.114 278.215 195.93 277.851 195.684C277.491 195.439 277.203 195.125 276.987 194.745C276.771 194.364 276.664 193.913 276.664 193.393H278.574C278.574 193.68 278.619 193.924 278.708 194.123C278.796 194.321 278.921 194.482 279.082 194.605C279.247 194.728 279.442 194.817 279.666 194.872C279.895 194.927 280.144 194.954 280.415 194.954C280.745 194.954 281.016 194.908 281.228 194.814C281.443 194.721 281.602 194.592 281.704 194.427C281.809 194.262 281.862 194.076 281.862 193.869ZM287.899 196.287H285.887L285.899 194.802H287.899C288.398 194.802 288.819 194.69 289.162 194.465C289.505 194.237 289.763 193.905 289.937 193.469C290.114 193.033 290.203 192.506 290.203 191.888V191.438C290.203 190.964 290.152 190.547 290.051 190.187C289.953 189.827 289.807 189.525 289.613 189.279C289.418 189.034 289.179 188.85 288.896 188.727C288.612 188.6 288.286 188.537 287.918 188.537H285.849V187.045H287.918C288.536 187.045 289.101 187.151 289.613 187.362C290.129 187.57 290.576 187.868 290.952 188.257C291.329 188.647 291.619 189.112 291.822 189.654C292.029 190.191 292.133 190.79 292.133 191.45V191.888C292.133 192.544 292.029 193.143 291.822 193.685C291.619 194.226 291.329 194.692 290.952 195.081C290.58 195.466 290.133 195.764 289.613 195.976C289.097 196.183 288.525 196.287 287.899 196.287ZM286.966 187.045V196.287H285.062V187.045H286.966ZM301.039 187.045V196.287H299.134L295.421 190.092V196.287H293.517V187.045H295.421L299.141 193.247V187.045H301.039Z" fill="white"/>
<path d="M216.679 246.817H218.577V252.924C218.577 253.635 218.424 254.234 218.12 254.72C217.819 255.207 217.402 255.573 216.869 255.818C216.34 256.064 215.731 256.187 215.041 256.187C214.351 256.187 213.738 256.064 213.2 255.818C212.667 255.573 212.248 255.207 211.943 254.72C211.643 254.234 211.493 253.635 211.493 252.924V246.817H213.397V252.924C213.397 253.339 213.463 253.677 213.594 253.939C213.725 254.202 213.913 254.394 214.159 254.517C214.408 254.64 214.702 254.701 215.041 254.701C215.388 254.701 215.682 254.64 215.923 254.517C216.169 254.394 216.355 254.202 216.482 253.939C216.613 253.677 216.679 253.339 216.679 252.924V246.817ZM224.956 253.641C224.956 253.476 224.931 253.328 224.88 253.197C224.833 253.061 224.744 252.939 224.613 252.829C224.482 252.714 224.298 252.602 224.061 252.492C223.824 252.382 223.517 252.268 223.141 252.149C222.722 252.014 222.324 251.862 221.947 251.692C221.575 251.523 221.245 251.326 220.957 251.102C220.674 250.874 220.449 250.609 220.284 250.309C220.123 250.008 220.043 249.659 220.043 249.261C220.043 248.876 220.128 248.527 220.297 248.214C220.466 247.896 220.703 247.626 221.008 247.401C221.312 247.173 221.672 246.997 222.087 246.875C222.506 246.752 222.965 246.69 223.464 246.69C224.146 246.69 224.74 246.813 225.248 247.059C225.756 247.304 226.149 247.64 226.429 248.068C226.712 248.495 226.854 248.984 226.854 249.534H224.962C224.962 249.263 224.905 249.026 224.791 248.823C224.681 248.616 224.512 248.453 224.283 248.334C224.059 248.216 223.775 248.157 223.433 248.157C223.103 248.157 222.827 248.208 222.607 248.309C222.387 248.406 222.222 248.54 222.112 248.709C222.002 248.874 221.947 249.06 221.947 249.268C221.947 249.424 221.985 249.566 222.062 249.693C222.142 249.82 222.26 249.938 222.417 250.048C222.574 250.158 222.766 250.262 222.995 250.359C223.223 250.457 223.488 250.552 223.788 250.645C224.292 250.797 224.734 250.969 225.115 251.159C225.5 251.35 225.821 251.563 226.08 251.8C226.338 252.037 226.532 252.306 226.664 252.606C226.795 252.907 226.86 253.248 226.86 253.628C226.86 254.03 226.782 254.39 226.625 254.708C226.469 255.025 226.243 255.294 225.946 255.514C225.65 255.734 225.297 255.901 224.886 256.015C224.476 256.129 224.017 256.187 223.509 256.187C223.052 256.187 222.601 256.127 222.157 256.009C221.712 255.886 221.308 255.702 220.944 255.457C220.585 255.211 220.297 254.898 220.081 254.517C219.865 254.136 219.757 253.686 219.757 253.165H221.668C221.668 253.453 221.712 253.696 221.801 253.895C221.89 254.094 222.015 254.255 222.176 254.377C222.341 254.5 222.535 254.589 222.76 254.644C222.988 254.699 223.238 254.727 223.509 254.727C223.839 254.727 224.11 254.68 224.321 254.587C224.537 254.494 224.696 254.365 224.797 254.2C224.903 254.035 224.956 253.848 224.956 253.641ZM230.993 256.06H228.98L228.993 254.574H230.993C231.492 254.574 231.913 254.462 232.256 254.238C232.599 254.009 232.857 253.677 233.03 253.241C233.208 252.805 233.297 252.278 233.297 251.661V251.21C233.297 250.736 233.246 250.319 233.145 249.959C233.047 249.6 232.901 249.297 232.707 249.052C232.512 248.806 232.273 248.622 231.989 248.5C231.706 248.373 231.38 248.309 231.012 248.309H228.942V246.817H231.012C231.63 246.817 232.194 246.923 232.707 247.135C233.223 247.342 233.669 247.64 234.046 248.03C234.423 248.419 234.712 248.885 234.916 249.426C235.123 249.964 235.227 250.562 235.227 251.223V251.661C235.227 252.317 235.123 252.915 234.916 253.457C234.712 253.999 234.423 254.464 234.046 254.854C233.674 255.239 233.227 255.537 232.707 255.749C232.19 255.956 231.619 256.06 230.993 256.06ZM230.06 246.817V256.06H228.155V246.817H230.06ZM240.311 246.817V256.06H238.413V246.817H240.311ZM243.155 246.817V248.309H235.614V246.817H243.155ZM248.074 246.817L244.685 256.853H243.326L246.716 246.817H248.074ZM254.168 246.817H256.066V252.924C256.066 253.635 255.914 254.234 255.609 254.72C255.308 255.207 254.892 255.573 254.358 255.818C253.829 256.064 253.22 256.187 252.53 256.187C251.84 256.187 251.227 256.064 250.689 255.818C250.156 255.573 249.737 255.207 249.433 254.72C249.132 254.234 248.982 253.635 248.982 252.924V246.817H250.886V252.924C250.886 253.339 250.952 253.677 251.083 253.939C251.214 254.202 251.403 254.394 251.648 254.517C251.898 254.64 252.192 254.701 252.53 254.701C252.877 254.701 253.171 254.64 253.413 254.517C253.658 254.394 253.844 254.202 253.971 253.939C254.102 253.677 254.168 253.339 254.168 252.924V246.817ZM262.445 253.641C262.445 253.476 262.42 253.328 262.369 253.197C262.323 253.061 262.234 252.939 262.103 252.829C261.971 252.714 261.787 252.602 261.55 252.492C261.313 252.382 261.007 252.268 260.63 252.149C260.211 252.014 259.813 251.862 259.437 251.692C259.064 251.523 258.734 251.326 258.446 251.102C258.163 250.874 257.938 250.609 257.773 250.309C257.613 250.008 257.532 249.659 257.532 249.261C257.532 248.876 257.617 248.527 257.786 248.214C257.955 247.896 258.192 247.626 258.497 247.401C258.802 247.173 259.161 246.997 259.576 246.875C259.995 246.752 260.454 246.69 260.954 246.69C261.635 246.69 262.229 246.813 262.737 247.059C263.245 247.304 263.639 247.64 263.918 248.068C264.201 248.495 264.343 248.984 264.343 249.534H262.452C262.452 249.263 262.395 249.026 262.28 248.823C262.17 248.616 262.001 248.453 261.772 248.334C261.548 248.216 261.265 248.157 260.922 248.157C260.592 248.157 260.317 248.208 260.097 248.309C259.877 248.406 259.712 248.54 259.602 248.709C259.492 248.874 259.437 249.06 259.437 249.268C259.437 249.424 259.475 249.566 259.551 249.693C259.631 249.82 259.75 249.938 259.906 250.048C260.063 250.158 260.255 250.262 260.484 250.359C260.712 250.457 260.977 250.552 261.277 250.645C261.781 250.797 262.223 250.969 262.604 251.159C262.989 251.35 263.311 251.563 263.569 251.8C263.827 252.037 264.022 252.306 264.153 252.606C264.284 252.907 264.35 253.248 264.35 253.628C264.35 254.03 264.271 254.39 264.115 254.708C263.958 255.025 263.732 255.294 263.436 255.514C263.139 255.734 262.786 255.901 262.375 256.015C261.965 256.129 261.506 256.187 260.998 256.187C260.541 256.187 260.09 256.127 259.646 256.009C259.202 255.886 258.798 255.702 258.434 255.457C258.074 255.211 257.786 254.898 257.57 254.517C257.354 254.136 257.247 253.686 257.247 253.165H259.157C259.157 253.453 259.202 253.696 259.291 253.895C259.379 254.094 259.504 254.255 259.665 254.377C259.83 254.5 260.025 254.589 260.249 254.644C260.478 254.699 260.727 254.727 260.998 254.727C261.328 254.727 261.599 254.68 261.811 254.587C262.026 254.494 262.185 254.365 262.287 254.2C262.392 254.035 262.445 253.848 262.445 253.641ZM268.482 256.06H266.47L266.482 254.574H268.482C268.981 254.574 269.402 254.462 269.745 254.238C270.088 254.009 270.346 253.677 270.52 253.241C270.697 252.805 270.786 252.278 270.786 251.661V251.21C270.786 250.736 270.735 250.319 270.634 249.959C270.536 249.6 270.39 249.297 270.196 249.052C270.001 248.806 269.762 248.622 269.479 248.5C269.195 248.373 268.869 248.309 268.501 248.309H266.432V246.817H268.501C269.119 246.817 269.684 246.923 270.196 247.135C270.712 247.342 271.159 247.64 271.535 248.03C271.912 248.419 272.202 248.885 272.405 249.426C272.612 249.964 272.716 250.562 272.716 251.223V251.661C272.716 252.317 272.612 252.915 272.405 253.457C272.202 253.999 271.912 254.464 271.535 254.854C271.163 255.239 270.716 255.537 270.196 255.749C269.68 255.956 269.108 256.06 268.482 256.06ZM267.549 246.817V256.06H265.645V246.817H267.549ZM281.622 246.817V256.06H279.717L276.004 249.864V256.06H274.1V246.817H276.004L279.724 253.019V246.817H281.622Z" fill="white"/>
<path d="M14.582 236.513V237.998H9.6626V236.513H14.582ZM10.2847 228.756V237.998H8.38037V228.756H10.2847ZM13.9409 232.52V233.967H9.6626V232.52H13.9409ZM14.5757 228.756V230.248H9.6626V228.756H14.5757ZM19.9521 228.756V237.998H18.0542V228.756H19.9521ZM22.7959 228.756V230.248H15.2549V228.756H22.7959ZM30.0449 232.52V234.005H25.2207V232.52H30.0449ZM25.7856 228.756V237.998H23.8813V228.756H25.7856ZM31.4033 228.756V237.998H29.5054V228.756H31.4033ZM36.894 228.756L33.5044 238.792H32.146L35.5356 228.756H36.894ZM42.9878 228.756H44.8857V234.862C44.8857 235.573 44.7334 236.172 44.4287 236.659C44.1283 237.145 43.7114 237.511 43.1782 237.757C42.6493 238.002 42.0399 238.125 41.3501 238.125C40.6603 238.125 40.0467 238.002 39.5093 237.757C38.9761 237.511 38.5571 237.145 38.2524 236.659C37.952 236.172 37.8018 235.573 37.8018 234.862V228.756H39.7061V234.862C39.7061 235.277 39.7716 235.616 39.9028 235.878C40.034 236.14 40.2223 236.333 40.4678 236.456C40.7174 236.578 41.0116 236.64 41.3501 236.64C41.6971 236.64 41.9912 236.578 42.2324 236.456C42.4779 236.333 42.6641 236.14 42.791 235.878C42.9222 235.616 42.9878 235.277 42.9878 234.862V228.756ZM51.2651 235.58C51.2651 235.415 51.2397 235.266 51.189 235.135C51.1424 235 51.0535 234.877 50.9224 234.767C50.7912 234.653 50.6071 234.541 50.3701 234.431C50.1331 234.321 49.8263 234.206 49.4497 234.088C49.0308 233.952 48.633 233.8 48.2563 233.631C47.884 233.462 47.5539 233.265 47.2661 233.041C46.9826 232.812 46.7583 232.548 46.5933 232.247C46.4325 231.947 46.3521 231.597 46.3521 231.2C46.3521 230.815 46.4367 230.465 46.606 230.152C46.7752 229.835 47.0122 229.564 47.3169 229.34C47.6216 229.111 47.9813 228.936 48.396 228.813C48.8149 228.69 49.2741 228.629 49.7734 228.629C50.4548 228.629 51.0493 228.752 51.5571 228.997C52.0649 229.243 52.4585 229.579 52.7378 230.006C53.0213 230.434 53.1631 230.923 53.1631 231.473H51.2715C51.2715 231.202 51.2144 230.965 51.1001 230.762C50.9901 230.554 50.8208 230.391 50.5923 230.273C50.368 230.154 50.0845 230.095 49.7417 230.095C49.4116 230.095 49.1366 230.146 48.9165 230.248C48.6965 230.345 48.5314 230.478 48.4214 230.647C48.3114 230.812 48.2563 230.999 48.2563 231.206C48.2563 231.363 48.2944 231.504 48.3706 231.631C48.451 231.758 48.5695 231.877 48.7261 231.987C48.8826 232.097 49.0752 232.201 49.3037 232.298C49.5322 232.395 49.7967 232.49 50.0972 232.583C50.6007 232.736 51.043 232.907 51.4238 233.098C51.8089 233.288 52.1305 233.502 52.3887 233.739C52.6468 233.976 52.8415 234.244 52.9727 234.545C53.1038 234.845 53.1694 235.186 53.1694 235.567C53.1694 235.969 53.0911 236.329 52.9346 236.646C52.778 236.963 52.5516 237.232 52.2554 237.452C51.9591 237.672 51.6058 237.839 51.1953 237.954C50.7848 238.068 50.3257 238.125 49.8179 238.125C49.3608 238.125 48.9102 238.066 48.4658 237.947C48.0215 237.825 47.6174 237.64 47.2534 237.395C46.8937 237.15 46.606 236.836 46.3901 236.456C46.1743 236.075 46.0664 235.624 46.0664 235.104H47.9771C47.9771 235.391 48.0215 235.635 48.1104 235.833C48.1992 236.032 48.3241 236.193 48.4849 236.316C48.6499 236.439 48.8446 236.528 49.0688 236.583C49.2974 236.638 49.547 236.665 49.8179 236.665C50.1479 236.665 50.4188 236.618 50.6304 236.525C50.8462 236.432 51.0049 236.303 51.1064 236.138C51.2122 235.973 51.2651 235.787 51.2651 235.58ZM57.3018 237.998H55.2896L55.3022 236.513H57.3018C57.8011 236.513 58.2222 236.401 58.5649 236.176C58.9077 235.948 59.1659 235.616 59.3394 235.18C59.5171 234.744 59.606 234.217 59.606 233.599V233.148C59.606 232.674 59.5552 232.258 59.4536 231.898C59.3563 231.538 59.2103 231.236 59.0156 230.99C58.821 230.745 58.5819 230.561 58.2983 230.438C58.0148 230.311 57.689 230.248 57.3208 230.248H55.2515V228.756H57.3208C57.9386 228.756 58.5036 228.862 59.0156 229.073C59.5319 229.281 59.9784 229.579 60.355 229.968C60.7316 230.358 61.0215 230.823 61.2246 231.365C61.432 231.902 61.5356 232.501 61.5356 233.161V233.599C61.5356 234.255 61.432 234.854 61.2246 235.396C61.0215 235.937 60.7316 236.403 60.355 236.792C59.9826 237.177 59.5361 237.475 59.0156 237.687C58.4993 237.894 57.9281 237.998 57.3018 237.998ZM56.3687 228.756V237.998H54.4644V228.756H56.3687ZM70.4414 228.756V237.998H68.5371L64.8237 231.803V237.998H62.9194V228.756H64.8237L68.5435 234.958V228.756H70.4414Z" fill="white"/>
<path d="M264.939 220.434L263.362 220.07L263.902 215.495H269.203V217.02H265.53L265.307 218.915C265.421 218.849 265.602 218.777 265.847 218.699C266.114 218.614 266.393 218.572 266.674 218.576C267.127 218.576 267.53 218.644 267.881 218.779C268.233 218.915 268.53 219.113 268.771 219.372C269.017 219.627 269.201 219.942 269.324 220.317C269.452 220.691 269.515 221.117 269.515 221.594C269.515 221.99 269.452 222.368 269.324 222.73C269.198 223.087 269 223.414 268.74 223.694C268.481 223.973 268.153 224.196 267.754 224.36C267.356 224.525 266.888 224.607 266.35 224.607C265.948 224.608 265.549 224.548 265.167 224.428C264.796 224.314 264.448 224.138 264.138 223.909C263.84 223.682 263.595 223.396 263.419 223.07C263.246 222.741 263.157 222.37 263.152 221.959H265.135C265.157 222.197 265.218 222.403 265.32 222.576C265.421 222.745 265.559 222.876 265.733 222.971C265.907 223.062 266.108 223.107 266.337 223.107C266.557 223.107 266.744 223.066 266.897 222.984C267.047 222.899 267.172 222.778 267.258 222.632C267.352 222.484 267.42 222.311 267.462 222.113C267.505 221.915 267.525 221.704 267.525 221.477C267.528 221.264 267.501 221.053 267.443 220.848C267.395 220.671 267.308 220.507 267.189 220.366C267.072 220.228 266.921 220.122 266.75 220.057C266.576 219.983 266.367 219.946 266.121 219.946C265.799 219.946 265.547 219.998 265.364 220.101C265.203 220.187 265.059 220.299 264.939 220.434ZM270.666 217.699V217.224C270.666 216.882 270.742 216.572 270.894 216.292C271.05 216.009 271.286 215.775 271.575 215.619C271.88 215.45 272.253 215.366 272.693 215.366C273.151 215.366 273.53 215.45 273.831 215.619C274.132 215.788 274.357 216.012 274.505 216.292C274.658 216.572 274.734 216.882 274.734 217.224V217.699C274.734 218.033 274.658 218.339 274.505 218.619C274.353 218.903 274.119 219.137 273.831 219.292C273.534 219.461 273.162 219.545 272.713 219.545C272.263 219.545 271.886 219.461 271.581 219.292C271.291 219.135 271.054 218.901 270.894 218.619C270.741 218.336 270.662 218.02 270.666 217.699ZM271.962 217.224V217.699C271.962 217.835 271.99 217.962 272.045 218.082C272.1 218.201 272.183 218.298 272.293 218.372C272.403 218.446 272.541 218.483 272.706 218.483C272.876 218.483 273.013 218.446 273.119 218.372C273.225 218.298 273.304 218.201 273.354 218.082C273.41 217.962 273.437 217.835 273.437 217.699V217.224C273.437 217.084 273.41 216.954 273.354 216.835C273.306 216.715 273.222 216.611 273.113 216.538C273.002 216.464 272.863 216.427 272.693 216.427C272.532 216.427 272.397 216.464 272.286 216.538C272.179 216.614 272.096 216.717 272.045 216.835C271.99 216.954 271.962 217.084 271.962 217.224ZM275.077 222.755V222.28C275.077 221.942 275.153 221.634 275.306 221.354C275.465 221.071 275.703 220.838 275.993 220.681C276.297 220.512 276.673 220.428 277.118 220.428C277.571 220.428 277.948 220.512 278.249 220.681C278.55 220.85 278.774 221.074 278.923 221.354C279.075 221.634 279.152 221.942 279.152 222.28V222.755C279.152 223.093 279.075 223.401 278.923 223.681C278.771 223.965 278.537 224.199 278.249 224.354C277.952 224.523 277.582 224.607 277.137 224.607C276.683 224.607 276.304 224.523 275.998 224.354C275.707 224.198 275.466 223.965 275.306 223.681C275.152 223.396 275.073 223.078 275.077 222.755ZM276.38 222.28V222.755C276.38 222.895 276.412 223.024 276.475 223.144C276.539 223.264 276.628 223.36 276.742 223.434C276.857 223.508 276.986 223.545 277.13 223.545C277.329 223.545 277.48 223.508 277.582 223.434C277.687 223.36 277.76 223.264 277.798 223.144C277.837 223.018 277.856 222.887 277.855 222.755V222.28C277.855 222.14 277.827 222.01 277.772 221.891C277.723 221.773 277.639 221.672 277.531 221.601C277.42 221.527 277.283 221.489 277.118 221.489C276.952 221.489 276.814 221.527 276.704 221.601C276.595 221.673 276.51 221.774 276.456 221.891C276.405 222.014 276.379 222.147 276.38 222.28ZM277.613 216.785L273.094 223.811L272.147 223.335L276.666 216.31L277.613 216.785Z" fill="#E46B6F"/>
<path d="M265.262 44.5007H266.273C266.561 44.5007 266.799 44.4515 266.985 44.3527C267.176 44.2538 267.316 44.1141 267.405 43.933C267.498 43.7518 267.544 43.5396 267.544 43.2969C267.544 43.0873 267.502 42.8999 267.418 42.7353C267.332 42.5702 267.197 42.4343 267.03 42.3462C266.86 42.2473 266.64 42.1981 266.369 42.1981C266.174 42.1981 265.987 42.2375 265.809 42.3156C265.64 42.3859 265.493 42.4989 265.383 42.6427C265.273 42.7824 265.218 42.9512 265.218 43.1489H263.228C263.228 42.6468 263.369 42.2126 263.648 41.8462C263.932 41.4798 264.307 41.1982 264.773 41.0005C265.243 40.7987 265.756 40.6978 266.311 40.6978C266.951 40.6978 267.513 40.7966 267.996 40.9943C268.483 41.1879 268.86 41.4756 269.127 41.8586C269.398 42.2375 269.534 42.7064 269.534 43.2664C269.534 43.5583 269.462 43.8403 269.318 44.112C269.178 44.3796 268.977 44.6182 268.714 44.8278C268.437 45.0438 268.122 45.2111 267.786 45.3221C267.43 45.4411 267.034 45.5006 266.597 45.5006H265.262V44.5007ZM265.262 45.9514V44.9701H266.597C267.08 44.9701 267.513 45.0234 267.894 45.1306C268.276 45.2377 268.6 45.3919 268.867 45.5933C269.133 45.7951 269.337 46.0399 269.477 46.3282C269.617 46.6159 269.687 46.9373 269.687 47.2913C269.687 47.7111 269.602 48.0853 269.432 48.4149C269.264 48.7422 269.021 49.0273 268.72 49.2482C268.398 49.4829 268.034 49.6586 267.646 49.7668C267.212 49.885 266.762 49.9432 266.311 49.9396C265.922 49.939 265.535 49.8871 265.161 49.7854C264.79 49.6875 264.44 49.5287 264.125 49.316C263.817 49.1042 263.563 48.8277 263.381 48.5071C263.194 48.1779 263.102 47.7872 263.102 47.3343H265.091C265.091 47.5444 265.146 47.7333 265.256 47.9021C265.371 48.0672 265.525 48.1986 265.72 48.2975C265.922 48.3927 266.144 48.4412 266.369 48.4393C266.648 48.4393 266.886 48.3901 267.08 48.2913C267.27 48.1975 267.427 48.0515 267.532 47.8715C267.638 47.6945 267.691 47.4906 267.691 47.2603C267.691 46.9477 267.633 46.6967 267.519 46.5073C267.413 46.3172 267.242 46.1688 267.036 46.0875C266.824 45.997 266.57 45.9514 266.273 45.9514H265.262ZM275.636 40.7164H275.941V42.2473H275.827C275.382 42.2473 274.975 42.3094 274.606 42.4326C274.254 42.549 273.932 42.7363 273.659 42.9822C273.387 43.2289 273.176 43.5329 273.043 43.8709C272.903 44.2207 272.833 44.6244 272.833 45.0809V46.6123C272.833 46.9208 272.861 47.1904 272.915 47.4207C272.975 47.6469 273.06 47.8363 273.17 47.9885C273.284 48.137 273.422 48.2498 273.583 48.3285C273.744 48.4025 273.926 48.4393 274.13 48.4393C274.312 48.4393 274.48 48.4005 274.632 48.3223C274.788 48.2414 274.922 48.1272 275.026 47.9885C275.136 47.8446 275.221 47.678 275.28 47.4885C275.341 47.284 275.371 47.072 275.369 46.8592C275.369 46.6201 275.338 46.4043 275.274 46.2107C275.222 46.0272 275.133 45.8554 275.014 45.7045C274.906 45.5673 274.767 45.4572 274.606 45.3837C274.44 45.3043 274.257 45.264 274.072 45.2662C273.793 45.2662 273.551 45.3278 273.348 45.4515C273.151 45.5681 272.99 45.7319 272.878 45.9271C272.771 46.1078 272.712 46.3114 272.706 46.5197L272.178 46.0937C272.178 45.8137 272.236 45.5379 272.35 45.2662C272.469 44.9896 272.639 44.7365 272.852 44.5193C273.075 44.2884 273.346 44.1054 273.647 43.9821C273.964 43.8465 274.327 43.7787 274.734 43.7787C275.162 43.7787 275.539 43.859 275.865 44.0194C276.187 44.1724 276.468 44.3964 276.685 44.6736C276.91 44.9536 277.077 45.2807 277.187 45.6554C277.304 46.0422 277.362 46.4436 277.359 46.8468C277.359 47.2831 277.28 47.6904 277.124 48.0692C276.977 48.4348 276.756 48.7684 276.475 49.0505C276.191 49.3337 275.849 49.5564 275.471 49.7047C275.085 49.8615 274.655 49.9396 274.181 49.9396C273.689 49.9396 273.24 49.8553 272.833 49.6866C272.433 49.5196 272.074 49.2735 271.778 48.9641C271.473 48.633 271.237 48.2471 271.085 47.828C270.924 47.3876 270.844 46.8939 270.844 46.3468V45.6243C270.844 44.8754 270.962 44.2005 271.2 43.5997C271.441 42.9988 271.776 42.4843 272.204 42.0563C272.635 41.625 273.155 41.2863 273.729 41.0621C274.314 40.8318 274.95 40.7164 275.636 40.7164ZM278.363 43.0314V42.5563C278.363 42.2147 278.44 41.9036 278.592 41.6242C278.748 41.3413 278.984 41.1077 279.272 40.9514C279.577 40.7826 279.95 40.6978 280.391 40.6978C280.849 40.6978 281.228 40.7826 281.529 40.9514C281.829 41.1201 282.054 41.3442 282.202 41.6242C282.355 41.9036 282.431 42.2147 282.431 42.5563V43.0314C282.431 43.3647 282.355 43.6716 282.202 43.9516C282.054 44.2311 281.829 44.4557 281.529 44.6244C281.232 44.7931 280.859 44.8775 280.41 44.8775C279.961 44.8775 279.584 44.7931 279.278 44.6244C278.989 44.4669 278.751 44.2338 278.592 43.9516C278.439 43.6679 278.36 43.3518 278.363 43.0314ZM279.66 42.5563V43.0314C279.66 43.1675 279.688 43.2948 279.742 43.4144C279.797 43.5334 279.881 43.6302 279.99 43.7042C280.101 43.7787 280.238 43.8155 280.404 43.8155C280.573 43.8155 280.711 43.7787 280.817 43.7042C280.923 43.6302 281.001 43.5334 281.052 43.4144C281.107 43.2948 281.134 43.1675 281.134 43.0314V42.5563C281.134 42.416 281.107 42.2866 281.052 42.1671C281.004 42.0471 280.92 41.9439 280.81 41.871C280.7 41.797 280.56 41.7598 280.391 41.7598C280.23 41.7598 280.094 41.797 279.984 41.871C279.878 41.945 279.797 42.0439 279.742 42.1671C279.687 42.2896 279.659 42.4223 279.66 42.5563ZM282.775 48.0873V47.6122C282.775 47.2748 282.851 46.9658 283.003 46.6863C283.163 46.404 283.4 46.1708 283.69 46.0135C283.995 45.8443 284.37 45.7599 284.815 45.7599C285.268 45.7599 285.645 45.8443 285.947 46.0135C286.247 46.1822 286.472 46.4063 286.62 46.6863C286.773 46.9658 286.849 47.2748 286.849 47.6122V48.0873C286.849 48.4248 286.773 48.7338 286.62 49.0137C286.472 49.2932 286.247 49.5178 285.947 49.6866C285.65 49.8553 285.279 49.9396 284.834 49.9396C284.381 49.9396 284.001 49.8553 283.696 49.6866C283.404 49.5305 283.164 49.2972 283.003 49.0137C282.849 48.728 282.771 48.4097 282.775 48.0873ZM284.078 47.6122V48.0873C284.078 48.2276 284.11 48.357 284.173 48.4765C284.236 48.5956 284.325 48.6924 284.44 48.7664C284.555 48.8409 284.684 48.8776 284.827 48.8776C285.027 48.8776 285.178 48.8409 285.279 48.7664C285.385 48.6924 285.457 48.5956 285.495 48.4765C285.533 48.357 285.552 48.2276 285.552 48.0873V47.6122C285.552 47.472 285.525 47.3426 285.47 47.223C285.42 47.1054 285.336 47.0046 285.228 46.9332C285.118 46.8592 284.98 46.8219 284.815 46.8219C284.649 46.8219 284.512 46.8592 284.402 46.9332C284.292 47.0072 284.209 47.104 284.154 47.223C284.102 47.3466 284.076 47.4789 284.078 47.6122ZM285.311 42.1179L280.791 49.1431L279.844 48.668L284.364 41.6423L285.311 42.1179Z" fill="#E14B51"/>
<path d="M243.814 20.7598L245.655 12.9839H246.684L246.918 14.2788L244.957 22.2261H243.853L243.814 20.7598ZM242.869 12.9839L244.392 20.7598L244.265 22.2261H243.034L240.983 12.9839H242.869ZM248.537 20.728L250.042 12.9839H251.927L249.883 22.2261H248.651L248.537 20.728ZM247.261 12.9839L249.115 20.7915L249.064 22.2261H247.959L245.985 14.2725L246.239 12.9839H247.261ZM254.529 12.9839L256.269 16.2085L258.008 12.9839H260.185L257.5 17.5669L260.255 22.2261H258.059L256.269 18.938L254.479 22.2261H252.27L255.031 17.5669L252.339 12.9839H254.529ZM265.047 12.9839L261.658 23.0195H260.299L263.689 12.9839H265.047ZM271.141 12.9839H273.039V19.0903C273.039 19.8013 272.887 20.4001 272.582 20.8867C272.282 21.3734 271.865 21.7394 271.332 21.9849C270.803 22.2303 270.193 22.353 269.503 22.353C268.814 22.353 268.2 22.2303 267.663 21.9849C267.129 21.7394 266.71 21.3734 266.406 20.8867C266.105 20.4001 265.955 19.8013 265.955 19.0903V12.9839H267.859V19.0903C267.859 19.505 267.925 19.8436 268.056 20.106C268.187 20.3683 268.376 20.5609 268.621 20.6836C268.871 20.8063 269.165 20.8677 269.503 20.8677C269.85 20.8677 270.145 20.8063 270.386 20.6836C270.631 20.5609 270.817 20.3683 270.944 20.106C271.076 19.8436 271.141 19.505 271.141 19.0903V12.9839ZM279.418 19.8076C279.418 19.6426 279.393 19.4945 279.342 19.3633C279.296 19.2279 279.207 19.1051 279.076 18.9951C278.944 18.8809 278.76 18.7687 278.523 18.6587C278.286 18.5487 277.98 18.4344 277.603 18.3159C277.184 18.1805 276.786 18.0282 276.41 17.8589C276.037 17.6896 275.707 17.4928 275.419 17.2686C275.136 17.04 274.912 16.7756 274.747 16.4751C274.586 16.1746 274.505 15.8255 274.505 15.4277C274.505 15.0426 274.59 14.6935 274.759 14.3804C274.929 14.063 275.166 13.7922 275.47 13.5679C275.775 13.3394 276.135 13.1637 276.549 13.041C276.968 12.9183 277.427 12.8569 277.927 12.8569C278.608 12.8569 279.203 12.9797 279.71 13.2251C280.218 13.4705 280.612 13.807 280.891 14.2344C281.175 14.6618 281.316 15.1506 281.316 15.7007H279.425C279.425 15.4299 279.368 15.1929 279.253 14.9897C279.143 14.7824 278.974 14.6195 278.746 14.501C278.521 14.3825 278.238 14.3232 277.895 14.3232C277.565 14.3232 277.29 14.374 277.07 14.4756C276.85 14.5729 276.685 14.7062 276.575 14.8755C276.465 15.0405 276.41 15.2267 276.41 15.4341C276.41 15.5907 276.448 15.7324 276.524 15.8594C276.604 15.9863 276.723 16.1048 276.879 16.2148C277.036 16.3249 277.229 16.4285 277.457 16.5259C277.686 16.6232 277.95 16.7184 278.25 16.8115C278.754 16.9639 279.196 17.1353 279.577 17.3257C279.962 17.5161 280.284 17.7298 280.542 17.9668C280.8 18.2038 280.995 18.4725 281.126 18.7729C281.257 19.0734 281.323 19.4141 281.323 19.7949C281.323 20.1969 281.244 20.5566 281.088 20.874C280.931 21.1914 280.705 21.4601 280.409 21.6802C280.112 21.9002 279.759 22.0674 279.349 22.1816C278.938 22.2959 278.479 22.353 277.971 22.353C277.514 22.353 277.063 22.2938 276.619 22.1753C276.175 22.0526 275.771 21.8685 275.407 21.623C275.047 21.3776 274.759 21.0645 274.543 20.6836C274.328 20.3027 274.22 19.8521 274.22 19.3315H276.13C276.13 19.6193 276.175 19.8626 276.264 20.0615C276.353 20.2604 276.477 20.4212 276.638 20.5439C276.803 20.6667 276.998 20.7555 277.222 20.8105C277.451 20.8656 277.7 20.8931 277.971 20.8931C278.301 20.8931 278.572 20.8465 278.784 20.7534C279 20.6603 279.158 20.5312 279.26 20.3662C279.366 20.2012 279.418 20.015 279.418 19.8076ZM285.455 22.2261H283.443L283.456 20.7407H285.455C285.954 20.7407 286.375 20.6286 286.718 20.4043C287.061 20.1758 287.319 19.8436 287.493 19.4077C287.67 18.9718 287.759 18.445 287.759 17.8271V17.3765C287.759 16.9025 287.708 16.4857 287.607 16.126C287.51 15.7663 287.364 15.4637 287.169 15.2183C286.974 14.9728 286.735 14.7887 286.452 14.666C286.168 14.5391 285.842 14.4756 285.474 14.4756H283.405V12.9839H285.474C286.092 12.9839 286.657 13.0897 287.169 13.3013C287.685 13.5086 288.132 13.807 288.508 14.1963C288.885 14.5856 289.175 15.0511 289.378 15.5928C289.585 16.1302 289.689 16.729 289.689 17.3892V17.8271C289.689 18.4831 289.585 19.0819 289.378 19.6235C289.175 20.1652 288.885 20.6307 288.508 21.02C288.136 21.4051 287.689 21.7035 287.169 21.915C286.653 22.1224 286.081 22.2261 285.455 22.2261ZM284.522 12.9839V22.2261H282.618V12.9839H284.522ZM298.595 12.9839V22.2261H296.69L292.977 16.0308V22.2261H291.073V12.9839H292.977L296.697 19.1855V12.9839H298.595Z" fill="white"/>
<path d="M183.373 78.8825L215.394 33.6814C216.095 32.6923 217.232 32.1045 218.444 32.1045H272.573" stroke="#E14B51" stroke-width="1.06784"/>
<path d="M30.0299 39.0239L28.4531 38.6601L28.9934 34.0855H34.2947V35.6102H30.6209L30.3987 37.5054C30.5127 37.4397 30.6929 37.3678 30.9385 37.2896C31.1847 37.2068 31.4597 37.1659 31.7651 37.1659C32.218 37.1659 32.6209 37.2337 32.9726 37.3698C33.3126 37.4977 33.6173 37.7005 33.8626 37.9624C34.1082 38.2176 34.2926 38.5323 34.4157 38.907C34.5425 39.2812 34.6065 39.7071 34.6065 40.1848C34.608 40.5709 34.5435 40.9546 34.4157 41.3203C34.2899 41.6765 34.0911 42.0041 33.8311 42.2835C33.5721 42.5635 33.2439 42.7855 32.8453 42.9501C32.4472 43.1152 31.9793 43.1975 31.4411 43.1975C31.0397 43.1981 30.6407 43.1377 30.2586 43.0184C29.8874 42.9039 29.5391 42.7285 29.229 42.4998C28.931 42.2726 28.6862 41.9864 28.5106 41.6603C28.3369 41.3307 28.2479 40.9606 28.2437 40.5486H30.2266C30.2479 40.7877 30.3097 40.9932 30.411 41.1661C30.5127 41.3348 30.6508 41.4668 30.8245 41.5615C31.011 41.6549 31.2185 41.7015 31.4283 41.6971C31.6484 41.6971 31.8349 41.6562 31.9878 41.5739C32.1402 41.4875 32.2607 41.37 32.3502 41.222C32.4429 41.0734 32.5111 40.9006 32.5532 40.7034C32.5959 40.5057 32.6172 40.2935 32.6172 40.0673C32.6172 39.8329 32.5895 39.6227 32.534 39.4375C32.4857 39.2612 32.399 39.0971 32.2798 38.9561C32.1631 38.8187 32.0121 38.7126 31.8413 38.6477C31.6675 38.5737 31.4576 38.5364 31.2124 38.5364C30.89 38.5364 30.638 38.5876 30.4557 38.6906C30.2947 38.7768 30.1504 38.8896 30.0294 39.0239H30.0299ZM37.6829 37.7585H38.6933C38.9816 37.7585 39.2193 37.7094 39.4058 37.6105C39.5961 37.5117 39.7362 37.3719 39.8252 37.1908C39.9185 37.0096 39.9648 36.7974 39.9648 36.5547C39.9648 36.3451 39.9222 36.1577 39.838 35.9932C39.7527 35.828 39.6173 35.6921 39.45 35.604C39.2806 35.5051 39.06 35.4559 38.7892 35.4559C38.5942 35.4559 38.4077 35.4948 38.2297 35.5734C38.0602 35.6438 37.9131 35.7567 37.8034 35.9005C37.6936 36.0403 37.6382 36.209 37.6382 36.4067H35.6489C35.6489 35.9047 35.7885 35.4704 36.0682 35.104C36.3523 34.7376 36.7274 34.456 37.1932 34.2583C37.6638 34.0565 38.1764 33.9556 38.7317 33.9556C39.3712 33.9556 39.9334 34.0544 40.4162 34.2521C40.9033 34.4457 41.2806 34.7334 41.5475 35.1164C41.8193 35.4948 41.9547 35.9642 41.9547 36.5236C41.9547 36.8161 41.8822 37.0981 41.7383 37.3698C41.5987 37.6369 41.3973 37.876 41.1345 38.0856C40.8572 38.3017 40.543 38.4688 40.2062 38.5794C39.8502 38.6989 39.4543 38.7584 39.0179 38.7584H37.6829V37.7585ZM37.6829 39.2092V38.2279H39.0179C39.5007 38.2279 39.9334 38.2812 40.3144 38.3884C40.696 38.495 41.02 38.6497 41.2869 38.8511C41.5539 39.0529 41.7575 39.2977 41.8971 39.586C42.0373 39.8738 42.1071 40.1952 42.1071 40.5486C42.1071 40.9689 42.0218 41.3431 41.8529 41.6722C41.685 41.9998 41.4413 42.2852 41.1409 42.506C40.8182 42.7408 40.4542 42.9165 40.0666 43.0246C39.6322 43.1427 39.1828 43.2009 38.7317 43.1975C38.3459 43.1975 37.9627 43.1457 37.5812 43.0427C37.2108 42.945 36.8604 42.7864 36.5452 42.5738C36.2377 42.3619 35.9834 42.0854 35.8013 41.7649C35.6147 41.4357 35.5215 41.045 35.5215 40.5921H37.5113C37.5113 40.8022 37.5662 40.9911 37.6765 41.1599C37.7911 41.3244 37.9457 41.4564 38.1402 41.5553C38.3395 41.65 38.5558 41.6971 38.7887 41.6971C39.0685 41.6971 39.3056 41.6479 39.5007 41.5491C39.7 41.4461 39.8502 41.3063 39.952 41.1293C40.0586 40.9523 40.1114 40.7484 40.1114 40.5181C40.1114 40.205 40.0538 39.954 39.9392 39.7651C39.8332 39.5751 39.6625 39.4268 39.4564 39.3453C39.2443 39.2548 38.9901 39.2092 38.6939 39.2092H37.6829ZM43.2704 36.2892V35.8141C43.2704 35.4725 43.3466 35.1615 43.4996 34.882C43.655 34.599 43.8908 34.3653 44.179 34.2086C44.4844 34.0399 44.8574 33.9556 45.2981 33.9556C45.7559 33.9556 46.1348 34.0399 46.4358 34.2086C46.7364 34.3774 46.9613 34.602 47.1094 34.882C47.2624 35.1615 47.3386 35.4725 47.3386 35.8141V36.2892C47.3386 36.6225 47.2618 36.9294 47.1094 37.2089C46.9613 37.4889 46.7364 37.7135 46.4358 37.8822C46.139 38.0509 45.766 38.1353 45.3168 38.1353C44.868 38.1353 44.4908 38.0509 44.1854 37.8822C43.8961 37.7247 43.6582 37.4914 43.499 37.2089C43.3454 36.9255 43.2667 36.6095 43.2699 36.2892H43.2704ZM44.567 35.8141V36.2892C44.567 36.4253 44.5947 36.5526 44.6496 36.6722C44.7044 36.7912 44.787 36.888 44.8974 36.962C45.0077 37.036 45.1452 37.0733 45.3109 37.0733C45.4804 37.0733 45.6178 37.036 45.7239 36.962C45.8289 36.889 45.9104 36.7885 45.9589 36.6722C46.0143 36.5526 46.0415 36.4253 46.0415 36.2892V35.8141C46.0415 35.6738 46.0143 35.5444 45.9589 35.4249C45.9108 35.3049 45.8267 35.2018 45.7175 35.1289C45.6072 35.0548 45.467 35.0176 45.2981 35.0176C45.1372 35.0176 45.0013 35.0548 44.891 35.1289C44.7854 35.2029 44.7044 35.3017 44.6496 35.4249C44.5938 35.5474 44.5656 35.6801 44.567 35.8141ZM47.6818 41.3451V40.87C47.6818 40.5326 47.758 40.2236 47.9109 39.9441C48.07 39.6617 48.3077 39.4284 48.5968 39.2708C48.9021 39.1021 49.2773 39.0177 49.7222 39.0177C50.1752 39.0177 50.5525 39.1021 50.8536 39.2708C51.1542 39.4395 51.379 39.6641 51.5272 39.9441C51.6796 40.2236 51.7563 40.5326 51.7563 40.87V41.3451C51.7563 41.6826 51.6796 41.9916 51.5272 42.271C51.379 42.551 51.1542 42.7757 50.8536 42.9444C50.5568 43.1131 50.1859 43.1975 49.7409 43.1975C49.2879 43.1975 48.9085 43.1131 48.6032 42.9444C48.3111 42.7883 48.0709 42.5548 47.9104 42.271C47.7563 41.9856 47.6775 41.6674 47.6812 41.3451H47.6818ZM48.9847 40.87V41.3451C48.9847 41.4854 49.0167 41.6148 49.0801 41.7343C49.144 41.8534 49.2325 41.9502 49.3465 42.0242C49.4617 42.0982 49.5906 42.1354 49.7345 42.1354C49.9338 42.1354 50.0846 42.0982 50.1859 42.0242C50.2925 41.9502 50.3639 41.8534 50.4022 41.7343C50.4406 41.6148 50.4593 41.4854 50.4593 41.3451V40.87C50.4593 40.7298 50.4321 40.6004 50.3766 40.4808C50.3272 40.3633 50.2433 40.2625 50.1352 40.191C50.0249 40.117 49.8874 40.0797 49.7222 40.0797C49.557 40.0797 49.419 40.117 49.3087 40.191C49.1984 40.265 49.1158 40.3618 49.0609 40.4808C49.0093 40.6044 48.9834 40.7367 48.9847 40.87ZM50.2178 35.3757L45.6988 42.4009L44.7513 41.9253L49.2703 34.9001L50.2178 35.3757Z" fill="#5A81EA"/>
<path d="M4.27539 13.2393L6.11621 5.46338H7.14453L7.37939 6.7583L5.41797 14.7056H4.31348L4.27539 13.2393ZM3.32959 5.46338L4.85303 13.2393L4.72607 14.7056H3.49463L1.44434 5.46338H3.32959ZM8.99805 13.2075L10.5024 5.46338H12.3877L10.3438 14.7056H9.1123L8.99805 13.2075ZM7.72217 5.46338L9.57568 13.271L9.5249 14.7056H8.42041L6.44629 6.75195L6.7002 5.46338H7.72217ZM16.9009 7.04395L14.3872 14.7056H12.3623L15.7964 5.46338H17.085L16.9009 7.04395ZM18.9893 14.7056L16.4692 7.04395L16.2661 5.46338H17.5674L21.0205 14.7056H18.9893ZM18.875 11.2651V12.7568H13.9937V11.2651H18.875ZM24.6895 12.7759L26.8667 5.46338H28.9868L25.7686 14.7056H24.3721L24.6895 12.7759ZM22.6836 5.46338L24.8545 12.7759L25.1846 14.7056H23.7754L20.5762 5.46338H22.6836ZM36.0518 13.2202V14.7056H31.1323V13.2202H36.0518ZM31.7544 5.46338V14.7056H29.8501V5.46338H31.7544ZM35.4106 9.22754V10.6748H31.1323V9.22754H35.4106ZM36.0454 5.46338V6.95508H31.1323V5.46338H36.0454ZM41.9741 12.2871C41.9741 12.1221 41.9487 11.974 41.8979 11.8428C41.8514 11.7074 41.7625 11.5846 41.6313 11.4746C41.5002 11.3604 41.3161 11.2482 41.0791 11.1382C40.8421 11.0282 40.5353 10.9139 40.1587 10.7954C39.7397 10.66 39.342 10.5076 38.9653 10.3384C38.5929 10.1691 38.2629 9.97233 37.9751 9.74805C37.6916 9.51953 37.4673 9.25505 37.3022 8.95459C37.1414 8.65413 37.061 8.30501 37.061 7.90723C37.061 7.52214 37.1457 7.17301 37.3149 6.85986C37.4842 6.54248 37.7212 6.27165 38.0259 6.04736C38.3306 5.81885 38.6903 5.64323 39.105 5.52051C39.5239 5.39779 39.9831 5.33643 40.4824 5.33643C41.1637 5.33643 41.7583 5.45915 42.2661 5.70459C42.7739 5.95003 43.1675 6.28646 43.4468 6.71387C43.7303 7.14128 43.8721 7.63005 43.8721 8.18018H41.9805C41.9805 7.90934 41.9233 7.67236 41.8091 7.46924C41.6991 7.26188 41.5298 7.09896 41.3013 6.98047C41.077 6.86198 40.7935 6.80273 40.4507 6.80273C40.1206 6.80273 39.8455 6.85352 39.6255 6.95508C39.4054 7.05241 39.2404 7.18571 39.1304 7.35498C39.0203 7.52002 38.9653 7.70622 38.9653 7.91357C38.9653 8.07015 39.0034 8.21191 39.0796 8.33887C39.16 8.46582 39.2785 8.58431 39.4351 8.69434C39.5916 8.80436 39.7842 8.90804 40.0127 9.00537C40.2412 9.1027 40.5057 9.19792 40.8062 9.29102C41.3097 9.44336 41.752 9.61475 42.1328 9.80518C42.5179 9.99561 42.8395 10.2093 43.0977 10.4463C43.3558 10.6833 43.5505 10.952 43.6816 11.2524C43.8128 11.5529 43.8784 11.8936 43.8784 12.2744C43.8784 12.6764 43.8001 13.0361 43.6436 13.3535C43.487 13.6709 43.2606 13.9396 42.9644 14.1597C42.6681 14.3797 42.3148 14.5469 41.9043 14.6611C41.4938 14.7754 41.0347 14.8325 40.5269 14.8325C40.0698 14.8325 39.6191 14.7733 39.1748 14.6548C38.7305 14.5321 38.3263 14.348 37.9624 14.1025C37.6027 13.8571 37.3149 13.5439 37.0991 13.1631C36.8833 12.7822 36.7754 12.3315 36.7754 11.811H38.686C38.686 12.0988 38.7305 12.3421 38.8193 12.541C38.9082 12.7399 39.033 12.9007 39.1938 13.0234C39.3589 13.1462 39.5535 13.235 39.7778 13.29C40.0063 13.3451 40.256 13.3726 40.5269 13.3726C40.8569 13.3726 41.1278 13.326 41.3394 13.2329C41.5552 13.1398 41.7139 13.0107 41.8154 12.8457C41.9212 12.6807 41.9741 12.4945 41.9741 12.2871ZM49.0073 5.46338L45.6177 15.499H44.2593L47.6489 5.46338H49.0073ZM55.1011 5.46338H56.999V11.5698C56.999 12.2808 56.8467 12.8796 56.542 13.3662C56.2415 13.8529 55.8247 14.2189 55.2915 14.4644C54.7625 14.7098 54.1532 14.8325 53.4634 14.8325C52.7736 14.8325 52.16 14.7098 51.6226 14.4644C51.0894 14.2189 50.6704 13.8529 50.3657 13.3662C50.0653 12.8796 49.915 12.2808 49.915 11.5698V5.46338H51.8193V11.5698C51.8193 11.9845 51.8849 12.3231 52.0161 12.5854C52.1473 12.8478 52.3356 13.0404 52.5811 13.1631C52.8307 13.2858 53.1248 13.3472 53.4634 13.3472C53.8104 13.3472 54.1045 13.2858 54.3457 13.1631C54.5911 13.0404 54.7773 12.8478 54.9043 12.5854C55.0355 12.3231 55.1011 11.9845 55.1011 11.5698V5.46338ZM63.3784 12.2871C63.3784 12.1221 63.353 11.974 63.3022 11.8428C63.2557 11.7074 63.1668 11.5846 63.0356 11.4746C62.9045 11.3604 62.7204 11.2482 62.4834 11.1382C62.2464 11.0282 61.9396 10.9139 61.563 10.7954C61.144 10.66 60.7463 10.5076 60.3696 10.3384C59.9972 10.1691 59.6672 9.97233 59.3794 9.74805C59.0959 9.51953 58.8716 9.25505 58.7065 8.95459C58.5457 8.65413 58.4653 8.30501 58.4653 7.90723C58.4653 7.52214 58.55 7.17301 58.7192 6.85986C58.8885 6.54248 59.1255 6.27165 59.4302 6.04736C59.7349 5.81885 60.0946 5.64323 60.5093 5.52051C60.9282 5.39779 61.3874 5.33643 61.8867 5.33643C62.568 5.33643 63.1626 5.45915 63.6704 5.70459C64.1782 5.95003 64.5718 6.28646 64.8511 6.71387C65.1346 7.14128 65.2764 7.63005 65.2764 8.18018H63.3848C63.3848 7.90934 63.3276 7.67236 63.2134 7.46924C63.1034 7.26188 62.9341 7.09896 62.7056 6.98047C62.4813 6.86198 62.1978 6.80273 61.855 6.80273C61.5249 6.80273 61.2498 6.85352 61.0298 6.95508C60.8097 7.05241 60.6447 7.18571 60.5347 7.35498C60.4246 7.52002 60.3696 7.70622 60.3696 7.91357C60.3696 8.07015 60.4077 8.21191 60.4839 8.33887C60.5643 8.46582 60.6828 8.58431 60.8394 8.69434C60.9959 8.80436 61.1885 8.90804 61.417 9.00537C61.6455 9.1027 61.91 9.19792 62.2104 9.29102C62.714 9.44336 63.1562 9.61475 63.5371 9.80518C63.9222 9.99561 64.2438 10.2093 64.502 10.4463C64.7601 10.6833 64.9548 10.952 65.0859 11.2524C65.2171 11.5529 65.2827 11.8936 65.2827 12.2744C65.2827 12.6764 65.2044 13.0361 65.0479 13.3535C64.8913 13.6709 64.6649 13.9396 64.3687 14.1597C64.0724 14.3797 63.7191 14.5469 63.3086 14.6611C62.8981 14.7754 62.439 14.8325 61.9312 14.8325C61.4741 14.8325 61.0234 14.7733 60.5791 14.6548C60.1348 14.5321 59.7306 14.348 59.3667 14.1025C59.007 13.8571 58.7192 13.5439 58.5034 13.1631C58.2876 12.7822 58.1797 12.3315 58.1797 11.811H60.0903C60.0903 12.0988 60.1348 12.3421 60.2236 12.541C60.3125 12.7399 60.4373 12.9007 60.5981 13.0234C60.7632 13.1462 60.9578 13.235 61.1821 13.29C61.4106 13.3451 61.6603 13.3726 61.9312 13.3726C62.2612 13.3726 62.5321 13.326 62.7437 13.2329C62.9595 13.1398 63.1182 13.0107 63.2197 12.8457C63.3255 12.6807 63.3784 12.4945 63.3784 12.2871ZM69.415 14.7056H67.4028L67.4155 13.2202H69.415C69.9144 13.2202 70.3354 13.1081 70.6782 12.8838C71.021 12.6553 71.2791 12.3231 71.4526 11.8872C71.6304 11.4513 71.7192 10.9245 71.7192 10.3066V9.85596C71.7192 9.382 71.6685 8.96517 71.5669 8.60547C71.4696 8.24577 71.3236 7.9432 71.1289 7.69775C70.9342 7.45231 70.6951 7.26823 70.4116 7.14551C70.1281 7.01855 69.8022 6.95508 69.4341 6.95508H67.3647V5.46338H69.4341C70.0519 5.46338 70.6169 5.56917 71.1289 5.78076C71.6452 5.98812 72.0916 6.28646 72.4683 6.67578C72.8449 7.0651 73.1348 7.5306 73.3379 8.07227C73.5452 8.6097 73.6489 9.2085 73.6489 9.86865V10.3066C73.6489 10.9626 73.5452 11.5614 73.3379 12.103C73.1348 12.6447 72.8449 13.1102 72.4683 13.4995C72.0959 13.8846 71.6494 14.1829 71.1289 14.3945C70.6126 14.6019 70.0413 14.7056 69.415 14.7056ZM68.4819 5.46338V14.7056H66.5776V5.46338H68.4819ZM82.5547 5.46338V14.7056H80.6504L76.937 8.51025V14.7056H75.0327V5.46338H76.937L80.6567 11.665V5.46338H82.5547Z" fill="white"/>
<circle cx="38.2337" cy="25.6287" r="2.40264" fill="#5A81EA"/>
<circle cx="272.573" cy="32.3709" r="2.40264" fill="#E14B51"/>
</svg>
