<svg width="32" height="29" viewBox="0 0 32 29" fill="none" xmlns="http://www.w3.org/2000/svg">
<path d="M31.7927 27.2138L16.8825 1.39038C16.7927 1.23461 16.6635 1.10522 16.5079 1.01526C16.3522 0.925296 16.1756 0.87793 15.9958 0.87793C15.8161 0.87793 15.6394 0.925296 15.4838 1.01526C15.3281 1.10522 15.1989 1.23461 15.1092 1.39038L0.139593 27.3184C0.0494861 27.4741 0.002011 27.6507 0.00195318 27.8306C0.00189535 28.0105 0.0492568 28.1872 0.139264 28.343C0.229271 28.4987 0.358743 28.628 0.514631 28.7178C0.670519 28.8075 0.847314 28.8546 1.0272 28.8542H30.9748C31.1651 28.8542 31.3516 28.8012 31.5134 28.701C31.6752 28.6009 31.8059 28.4576 31.8907 28.2873C31.9756 28.117 32.0113 27.9264 31.9938 27.7369C31.9763 27.5475 31.9064 27.3666 31.7918 27.2147V27.2138H31.7927ZM17.3188 23C17.3096 23.3449 17.1661 23.6726 16.9189 23.9132C16.6717 24.1539 16.3404 24.2886 15.9954 24.2886C15.6504 24.2886 15.319 24.1539 15.0718 23.9132C14.8246 23.6726 14.6812 23.3449 14.672 23V22.8775C14.672 22.5265 14.8114 22.1899 15.0596 21.9417C15.3078 21.6936 15.6444 21.5541 15.9954 21.5541C16.3463 21.5541 16.683 21.6936 16.9311 21.9417C17.1793 22.1899 17.3188 22.5265 17.3188 22.8775V23ZM17.3188 18.8164C17.3096 19.1613 17.1661 19.4889 16.9189 19.7296C16.6717 19.9703 16.3404 20.105 15.9954 20.105C15.6504 20.105 15.319 19.9703 15.0718 19.7296C14.8246 19.4889 14.6812 19.1613 14.672 18.8164V10.8148C14.672 10.4638 14.8114 10.1272 15.0596 9.87902C15.3078 9.63084 15.6444 9.49141 15.9954 9.49141C16.3463 9.49141 16.683 9.63084 16.9311 9.87902C17.1793 10.1272 17.3188 10.4638 17.3188 10.8148V18.8174V18.8164Z" fill="#F3C260"/>
</svg>
